<svg width="181" height="52" viewBox="0 0 181 52" fill="none" xmlns="http://www.w3.org/2000/svg">
<g clip-path="url(#clip0_25_119)">
<path d="M14.7837 29.5269C10.4835 29.5269 6.90342 28.1486 4.14834 25.4304C1.39587 22.7148 0 19.292 0 15.2572C0 11.2224 1.39325 7.79447 4.14572 5.05316C6.9008 2.30928 10.3839 0.918056 14.4956 0.918056C17.07 0.918056 19.4663 1.49666 21.619 2.63845C23.7796 3.78537 25.5107 5.36175 26.7625 7.3213L27.543 8.54537L22.0695 11.6107H28.7738V15.9258C28.7738 19.8166 27.4696 23.0877 24.9005 25.6515C22.3235 28.2206 18.9189 29.5244 14.7811 29.5244L14.7837 29.5269ZM14.6396 10.6078C13.2281 10.6078 12.1307 11.0244 11.2875 11.8807C10.4311 12.7499 10.0147 13.866 10.0147 15.2932C10.0147 16.7204 10.418 17.8391 11.2482 18.8549C11.7091 19.4206 12.3403 19.8063 13.1574 20.0224V11.6133H17.7457C17.015 10.9318 16.0093 10.6104 14.6423 10.6104L14.6396 10.6078Z" fill="#231F20"/>
<path d="M46.8941 28.9612V20.5778L43.5026 26.1736H41.2504L37.8563 20.5778V28.9612H27.8442V1.48123H37.2592L42.3765 10.1603L47.4938 1.48123H56.9088V28.9612H46.8941Z" fill="#231F20"/>
<path d="M63.5947 29.4549C61.2141 29.4549 59.2656 28.6243 57.8069 26.9888C56.3953 25.4072 55.6777 23.098 55.6777 20.1278V8.54023H65.1529V19.4206C65.1529 20.3978 65.4253 20.3978 65.97 20.3978C66.5147 20.3978 66.6378 20.2281 66.7007 20.1561C66.8997 19.9195 67.0019 19.5312 67.0019 18.9963V8.53766H76.477V28.9586H67.0019V28.7606C66.0119 29.2209 64.8753 29.4523 63.5973 29.4523L63.5947 29.4549Z" fill="#231F20"/>
<path d="M86.5207 28.9612V18.0808C86.5207 17.1036 86.2483 17.1036 85.7036 17.1036C85.1588 17.1036 85.0357 17.2733 84.9729 17.3453C84.7712 17.5819 84.6717 17.9702 84.6717 18.5051V28.9637H75.1965V8.54023H84.6717V8.73567C85.6617 8.27536 86.7983 8.04649 88.0763 8.04649C90.4569 8.04649 92.4053 8.87711 93.864 10.5126C95.2783 12.0967 95.9932 14.406 95.9932 17.3736V28.9612H86.518H86.5207Z" fill="#231F20"/>
<path d="M105.953 29.4549C102.823 29.4549 100.178 28.4237 98.0908 26.387C96.0009 24.3503 94.9429 21.7813 94.9429 18.7494C94.9429 15.7175 96.0035 13.1511 98.0908 11.1118C100.178 9.07512 102.823 8.04391 105.953 8.04391C107.967 8.04391 109.844 8.52737 111.528 9.48143C113.223 10.4406 114.543 11.7547 115.457 13.3851L116.127 14.5809L108.726 18.7263L116.117 22.9128L115.462 24.0983C114.548 25.7596 113.22 27.0814 111.521 28.0328C109.839 28.974 107.964 29.4498 105.953 29.4498V29.4549ZM105.953 17.101C105.5 17.101 105.164 17.2348 104.868 17.5382C104.559 17.8545 104.418 18.2377 104.418 18.7494C104.418 19.2612 104.562 19.6443 104.868 19.9606C105.164 20.2641 105.5 20.3978 105.953 20.3978C106.835 20.3978 107.15 20.0301 107.356 19.634L107.862 18.6646L107.401 17.9034C107.055 17.3325 106.636 17.0985 105.955 17.0985L105.953 17.101Z" fill="#231F20"/>
<path d="M125.72 28.9612V18.0808C125.72 17.1036 125.448 17.1036 124.903 17.1036C124.359 17.1036 124.235 17.2733 124.173 17.3453C123.971 17.5819 123.871 17.9702 123.871 18.5051V28.9637H114.396V1.48123H123.871V8.73567C124.861 8.27536 125.998 8.04649 127.276 8.04649C129.657 8.04649 131.602 8.87711 133.064 10.5126C134.475 12.0967 135.193 14.406 135.193 17.3736V28.9612H125.718H125.72Z" fill="#231F20"/>
<path d="M133.949 28.9611V8.54016H135.151C135.133 8.52474 135.117 8.50673 135.099 8.48873C134.098 7.50639 133.59 6.32603 133.59 4.98366C133.59 3.6413 134.098 2.46351 135.101 1.4786C136.104 0.493678 137.317 -0.00520897 138.705 -0.00520897C140.093 -0.00520897 141.271 0.493678 142.272 1.47602C143.275 2.46094 143.783 3.63873 143.783 4.98109C143.783 6.32346 143.275 7.50125 142.272 8.48616C142.253 8.50416 142.238 8.51959 142.219 8.53759H143.421V28.9585H133.946L133.949 28.9611Z" fill="#231F20"/>
<path d="M153.868 29.4549C150.438 29.4549 147.622 28.4391 145.504 26.4385C143.369 24.4223 142.285 21.861 142.285 18.8214C142.285 15.7818 143.335 13.1871 145.409 11.1375C147.486 9.08541 150.126 8.04649 153.258 8.04649C156.39 8.04649 158.975 9.06998 161.002 11.0887C163.027 13.1022 164.051 15.6558 164.051 18.68C164.051 19.5646 163.941 20.4492 163.721 21.3107L163.453 22.3625H160.237L163.529 25.0884L162.524 26.1556C160.457 28.3466 157.545 29.4601 153.868 29.4601V29.4549Z" fill="#231F20"/>
<path d="M171.397 29.4549C166.47 29.4549 163.207 27.7654 161.696 24.4326L161.123 23.1674L165.703 21.1564C164.915 20.7167 164.226 20.1021 163.645 19.3255C162.867 18.2865 162.471 17.0007 162.471 15.5041C162.471 13.1125 163.425 11.225 165.305 9.89545C167.041 8.66881 169.066 8.04649 171.323 8.04649C176.972 8.04649 179.392 10.9472 180.426 13.38L180.997 14.7249L177.292 16.0338C177.467 16.1161 177.64 16.2035 177.81 16.2936C178.716 16.7693 179.465 17.5151 180.041 18.5051C180.607 19.4797 180.893 20.6421 180.893 21.9613C180.893 23.2805 180.565 24.5741 179.921 25.6361C179.269 26.7059 178.397 27.5237 177.323 28.0637C176.383 28.5394 175.409 28.8917 174.427 29.118C173.45 29.3418 172.431 29.4549 171.394 29.4549H171.397Z" fill="#231F20"/>
<path d="M14.569 18.9989H19.9247C19.0866 20.7398 17.421 21.6116 14.9278 21.6116C12.7725 21.6116 11.1776 20.9816 10.1483 19.724C9.11649 18.4665 8.60319 16.9879 8.60319 15.2932C8.60319 13.506 9.16101 12.0453 10.274 10.9164C11.3871 9.78745 12.8432 9.2217 14.6424 9.2217C16.8475 9.2217 18.4529 9.97517 19.4585 11.4795L25.5684 8.05677C24.4423 6.29267 22.9024 4.89115 20.9487 3.85738C18.995 2.82103 16.8449 2.30414 14.4957 2.30414C10.7585 2.30414 7.64205 3.54621 5.15148 6.02779C2.65828 8.50937 1.41431 11.5876 1.41431 15.2572C1.41431 18.9269 2.6609 21.9922 5.15148 24.4506C7.64467 26.9091 10.8554 28.1383 14.7838 28.1383C18.7121 28.1383 21.5824 26.9862 23.8949 24.6795C26.2074 22.3728 27.3624 19.4566 27.3624 15.9258V12.9968H14.5664V18.9963L14.569 18.9989ZM42.3765 12.9274L36.4447 2.86732H29.2558V27.5725H36.4447V15.5375L42.0518 24.7849H42.6986L48.3057 15.5375V27.5725H55.4946V2.86989H48.3057L42.3739 12.9299L42.3765 12.9274ZM68.411 18.9989C68.411 19.8706 68.2015 20.5521 67.7825 21.0458C67.3634 21.5396 66.7585 21.7865 65.9676 21.7865C64.4826 21.7865 63.7389 20.9996 63.7389 19.4206V9.92631H57.0895V20.1252C57.0895 22.7611 57.6814 24.7438 58.8677 26.0733C60.0541 27.4028 61.628 28.0663 63.5948 28.0663C65.703 28.0663 67.3084 27.3256 68.411 25.8418V27.5725H75.0604V9.92888H68.411V18.9989ZM88.0789 9.43514C85.9707 9.43514 84.3653 10.1758 83.2628 11.6596V9.92888H76.6134V27.5751H83.2628V18.5051C83.2628 17.6359 83.4723 16.9519 83.8913 16.4581C84.3103 15.9644 84.9153 15.7175 85.7062 15.7175C87.1911 15.7175 87.9349 16.507 87.9349 18.0834V27.5777H94.5843V17.3788C94.5843 14.7429 93.9898 12.7602 92.806 11.4307C91.6197 10.1012 90.0431 9.43771 88.0789 9.43771V9.43514ZM105.956 15.7175C107.129 15.7175 108.017 16.2113 108.616 17.1988L114.223 14.0588C113.432 12.647 112.301 11.5233 110.827 10.6875C109.352 9.85174 107.729 9.43514 105.956 9.43514C103.2 9.43514 100.912 10.3223 99.0914 12.0993C97.2713 13.8763 96.3599 16.093 96.3599 18.752C96.3599 21.411 97.2713 23.6277 99.0914 25.4047C100.912 27.1816 103.2 28.0688 105.956 28.0688C107.729 28.0688 109.352 27.6574 110.827 26.8345C112.301 26.0116 113.432 24.8826 114.223 23.4451L108.616 20.2692C108.09 21.2824 107.202 21.7865 105.956 21.7865C105.117 21.7865 104.416 21.4984 103.853 20.9224C103.289 20.3464 103.007 19.6212 103.007 18.752C103.007 17.8828 103.287 17.1576 103.853 16.5816C104.416 16.0055 105.117 15.7175 105.956 15.7175ZM127.279 9.43514C125.17 9.43514 123.565 10.1758 122.462 11.6596V2.86989H115.813V27.5751H122.462V18.5051C122.462 17.6359 122.672 16.9519 123.091 16.4581C123.51 15.9644 124.115 15.7175 124.906 15.7175C126.391 15.7175 127.135 16.507 127.135 18.0834V27.5777H133.784V17.3788C133.784 14.7429 133.192 12.7602 132.006 11.4307C130.819 10.1012 129.243 9.43771 127.279 9.43771V9.43514ZM135.363 27.5777H142.013V9.92888H135.363V27.5751V27.5777ZM138.705 1.38866C137.699 1.38866 136.83 1.74868 136.099 2.46615C135.368 3.18362 135.002 4.02453 135.002 4.98887C135.002 5.95322 135.366 6.79412 136.099 7.5116C136.83 8.22907 137.699 8.58909 138.705 8.58909C139.711 8.58909 140.543 8.23164 141.274 7.5116C142.005 6.79412 142.371 5.95322 142.371 4.98887C142.371 4.02453 142.005 3.18362 141.274 2.46615C140.543 1.74868 139.687 1.38866 138.705 1.38866ZM153.255 9.43514C150.5 9.43514 148.217 10.3301 146.407 12.1173C144.597 13.9046 143.694 16.1418 143.694 18.824C143.694 21.5062 144.621 23.6894 146.48 25.4407C148.337 27.1945 150.799 28.0688 153.866 28.0688C157.147 28.0688 159.687 27.1148 161.487 25.2092L157.137 21.609C156.202 22.3625 155.183 22.7379 154.08 22.7379C152.211 22.7379 150.99 22.1491 150.414 20.9738H162.348C162.539 20.2204 162.636 19.4566 162.636 18.68C162.636 16.021 161.756 13.8145 159.994 12.0633C158.234 10.3121 155.987 9.43514 153.255 9.43514ZM150.309 16.777C150.836 15.3652 151.878 14.6606 153.436 14.6606C154.994 14.6606 155.94 15.3678 156.348 16.777H150.309ZM178.821 19.1943C178.379 18.4305 177.821 17.8699 177.15 17.5176C176.48 17.1653 175.76 16.8696 174.995 16.6356C174.228 16.4016 173.51 16.2421 172.84 16.1598C172.169 16.0775 171.611 15.9541 171.169 15.7895C170.726 15.6249 170.504 15.4012 170.504 15.1183C170.504 14.6246 170.875 14.3777 171.617 14.3777C172.528 14.3777 173.198 14.8715 173.63 15.859L179.13 13.9174C177.86 10.9292 175.259 9.43514 171.331 9.43514C169.367 9.43514 167.633 9.96489 166.138 11.0244C164.64 12.0839 163.891 13.578 163.891 15.5067C163.891 16.7076 164.189 17.7079 164.789 18.5077C165.389 19.3075 166.112 19.8783 166.963 20.2204C167.814 20.5624 168.657 20.8324 169.498 21.033C170.336 21.2336 171.056 21.4264 171.653 21.6142C172.253 21.8019 172.552 22.0488 172.552 22.3548C172.552 22.8717 172.143 23.1314 171.328 23.1314C170.082 23.1314 169.231 22.5322 168.775 21.3313L162.987 23.872C164.257 26.6725 167.06 28.0714 171.399 28.0714C172.334 28.0714 173.238 27.9711 174.112 27.7705C174.987 27.57 175.843 27.2588 176.682 26.8345C177.52 26.4102 178.198 25.775 178.711 24.9289C179.227 24.0829 179.484 23.0928 179.484 21.9639C179.484 20.835 179.261 19.9581 178.819 19.1943H178.821Z" fill="#B21F36"/>
<path d="M36.4447 26.1864H29.2559V27.5751H36.4447V26.1864Z" fill="#8E1830"/>
<path d="M55.4945 26.1864H48.3057V27.5751H55.4945V26.1864Z" fill="#8E1830"/>
<path d="M48.3058 14.1514L42.6988 23.3988H42.0519L36.4448 14.1514V15.5401L42.0519 24.7875H42.6988L48.3058 15.5401V14.1514Z" fill="#8E1830"/>
<path d="M68.4111 24.4558C67.3085 25.937 65.7032 26.6802 63.5949 26.6802C61.6308 26.6802 60.0542 26.0167 58.8678 24.6872C57.6815 23.3577 57.0896 21.375 57.0896 18.7391V20.1278C57.0896 22.7637 57.6815 24.7464 58.8678 26.0759C60.0542 27.4054 61.6282 28.0688 63.5949 28.0688C65.7032 28.0688 67.3085 27.3282 68.4111 25.8444V24.4558Z" fill="#8E1830"/>
<path d="M75.0603 26.1864H68.4109V27.5751H75.0603V26.1864Z" fill="#8E1830"/>
<path d="M14.5691 17.6102V18.9989H18.8824C19.3119 18.6234 19.6602 18.1605 19.9247 17.6102H14.5691Z" fill="#8E1830"/>
<path d="M166.957 20.2152C167.17 20.3001 167.379 20.3798 167.591 20.457L168.772 19.9375C168.937 20.3747 169.157 20.7321 169.43 21.0098C169.451 21.015 169.472 21.0201 169.493 21.0253C170.331 21.2259 171.051 21.4187 171.648 21.6064C171.726 21.6322 171.8 21.6579 171.868 21.6836C172.318 21.5859 172.546 21.3441 172.546 20.9584C172.546 20.6524 172.245 20.4055 171.648 20.2178C171.048 20.0301 170.331 19.8346 169.493 19.6366C168.655 19.436 167.809 19.166 166.957 18.824C166.106 18.482 165.381 17.9137 164.784 17.1113C164.299 16.4659 164.016 15.6892 163.922 14.7815C163.899 15.0129 163.885 15.2521 163.885 15.4989C163.885 16.6999 164.184 17.7002 164.784 18.5C165.384 19.2997 166.106 19.8706 166.957 20.2127V20.2152Z" fill="#8E1830"/>
<path d="M153.436 13.2694C151.878 13.2694 150.835 13.9766 150.309 15.3858H151.231C151.789 14.9023 152.525 14.658 153.436 14.658C154.347 14.658 155.039 14.9023 155.55 15.3858H156.348C155.94 13.974 154.971 13.2694 153.436 13.2694Z" fill="#8E1830"/>
<path d="M171.614 12.9865C170.87 12.9865 170.501 13.2334 170.501 13.7271C170.501 14.01 170.724 14.2337 171.166 14.3983C171.177 14.4034 171.192 14.406 171.203 14.4112C171.326 14.3906 171.459 14.3752 171.617 14.3752C172.083 14.3752 172.486 14.5063 172.827 14.766C172.832 14.766 172.834 14.766 172.837 14.766C173.507 14.8483 174.228 15.0078 174.992 15.2418C175.058 15.2624 175.118 15.2855 175.184 15.3061L179.128 13.9148C178.95 13.4931 178.74 13.1048 178.51 12.7448L173.628 14.4677C173.196 13.4802 172.525 12.9865 171.614 12.9865Z" fill="#8E1830"/>
<path d="M14.6398 7.83304C12.8432 7.83304 11.3871 8.39879 10.2714 9.52772C9.15841 10.6566 8.60059 12.1173 8.60059 13.9046C8.60059 14.1386 8.61368 14.3674 8.63201 14.5937C8.76034 13.1228 9.30769 11.8961 10.2714 10.9164C11.3845 9.78745 12.8406 9.2217 14.6398 9.2217C16.8449 9.2217 18.4503 9.97517 19.4559 11.4795L25.5658 8.05677C25.3458 7.71218 25.1049 7.38559 24.8535 7.06671L19.4559 10.0909C18.4503 8.58652 16.8449 7.83304 14.6398 7.83304Z" fill="#8E1830"/>
<path d="M83.2602 26.1864H76.6108V27.5751H83.2602V26.1864Z" fill="#8E1830"/>
<path d="M14.7838 26.7496C10.8528 26.7496 7.64205 25.5204 5.15148 23.062C2.81804 20.7604 1.57668 17.9265 1.43002 14.5629C1.41954 14.7918 1.41431 15.0232 1.41431 15.2572C1.41431 18.9269 2.6609 21.9922 5.15148 24.4506C7.64467 26.9091 10.8554 28.1383 14.7838 28.1383C18.7121 28.1383 21.5825 26.9862 23.8949 24.6795C26.2074 22.3728 27.3624 19.4566 27.3624 15.9258V14.5372C27.3624 18.0679 26.2048 20.9841 23.8949 23.2908C21.5825 25.5975 18.5445 26.7496 14.7838 26.7496Z" fill="#8E1830"/>
<path d="M87.9348 16.6922C87.9348 15.1158 87.191 14.3263 85.7061 14.3263C84.9152 14.3263 84.3103 14.5732 83.8912 15.0669C83.4722 15.5607 83.2627 16.2447 83.2627 17.1139V18.5025C83.2627 17.6334 83.4722 16.9493 83.8912 16.4556C84.3103 15.9618 84.9152 15.7149 85.7061 15.7149C87.191 15.7149 87.9348 16.5044 87.9348 18.0808V16.6922Z" fill="#8E1830"/>
<path d="M153.868 26.6802C150.802 26.6802 148.34 25.8033 146.483 24.052C144.789 22.4525 143.869 20.4749 143.72 18.122C143.707 18.3534 143.697 18.5874 143.697 18.824C143.697 21.483 144.624 23.6894 146.483 25.4407C148.34 27.1945 150.802 28.0688 153.868 28.0688C157.15 28.0688 159.69 27.1148 161.489 25.2092L160.698 24.5561C158.973 25.9704 156.697 26.6802 153.868 26.6802Z" fill="#8E1830"/>
<path d="M94.5842 26.1864H87.9348V27.5751H94.5842V26.1864Z" fill="#8E1830"/>
<path d="M178.711 23.5377C178.195 24.3838 177.52 25.0189 176.682 25.4433C175.844 25.8676 174.987 26.1787 174.112 26.3793C173.238 26.5799 172.334 26.6802 171.399 26.6802C167.68 26.6802 165.093 25.6464 163.629 23.5891L162.99 23.8694C164.26 26.6699 167.062 28.0688 171.402 28.0688C172.337 28.0688 173.24 27.9685 174.115 27.768C174.99 27.5674 175.846 27.2562 176.684 26.8319C177.522 26.4076 178.201 25.7724 178.714 24.9264C179.23 24.0803 179.486 23.0903 179.486 21.9613C179.486 21.717 179.473 21.4804 179.45 21.2516C179.366 22.1028 179.122 22.864 178.714 23.5377H178.711Z" fill="#8E1830"/>
<path d="M142.01 26.1864H135.361V27.5751H142.01V26.1864Z" fill="#8E1830"/>
<path d="M162.351 19.5852H150.417C150.726 20.2204 151.228 20.6832 151.915 20.9738H155.895C156.325 20.7887 156.739 20.5418 157.137 20.2204L158.048 20.9738H162.348C162.539 20.2204 162.636 19.4566 162.636 18.68C162.636 18.4331 162.626 18.1914 162.61 17.9497C162.571 18.5 162.484 19.0452 162.348 19.5852H162.351Z" fill="#8E1830"/>
<path d="M141.274 6.12037C140.543 6.83784 139.687 7.19786 138.705 7.19786C137.723 7.19786 136.83 6.84041 136.099 6.12037C135.549 5.58034 135.206 4.97087 135.07 4.29197C135.025 4.5157 135.002 4.74714 135.002 4.9863C135.002 5.95064 135.366 6.79155 136.099 7.50903C136.683 8.08249 137.356 8.42194 138.113 8.53766H139.281C140.025 8.42194 140.69 8.08249 141.274 7.50903C142.005 6.79155 142.371 5.95064 142.371 4.9863C142.371 4.74714 142.348 4.5157 142.303 4.29197C142.167 4.97087 141.824 5.58034 141.274 6.12037Z" fill="#8E1830"/>
<path d="M110.824 25.4458C109.35 26.2687 107.726 26.6802 105.953 26.6802C103.198 26.6802 100.909 25.793 99.0887 24.016C97.4283 22.3959 96.5274 20.4107 96.3807 18.0577C96.3677 18.2865 96.3572 18.518 96.3572 18.752C96.3572 21.411 97.2686 23.6277 99.0887 25.4047C100.909 27.1816 103.198 28.0688 105.953 28.0688C107.726 28.0688 109.35 27.6574 110.824 26.8345C112.298 26.0116 113.43 24.8826 114.221 23.4451L113.566 23.0748C112.846 24.0366 111.932 24.8286 110.824 25.4458Z" fill="#8E1830"/>
<path d="M108.614 15.8101C108.014 14.8226 107.129 14.3289 105.953 14.3289C105.115 14.3289 104.413 14.6169 103.85 15.1929C103.287 15.769 103.004 16.4941 103.004 17.3633C103.004 17.6076 103.028 17.8365 103.072 18.0577C103.185 17.4893 103.442 16.9982 103.847 16.5816C104.41 16.0055 105.112 15.7175 105.95 15.7175C107.124 15.7175 108.011 16.2113 108.611 17.1988L114.218 14.0588C114.019 13.7014 113.797 13.3645 113.553 13.0431L108.611 15.8101H108.614Z" fill="#8E1830"/>
<path d="M122.46 26.1864H115.811V27.5751H122.46V26.1864Z" fill="#8E1830"/>
<path d="M127.132 16.6922C127.132 15.1158 126.388 14.3263 124.903 14.3263C124.112 14.3263 123.508 14.5732 123.088 15.0669C122.669 15.5607 122.46 16.2447 122.46 17.1139V18.5025C122.46 17.6334 122.669 16.9493 123.088 16.4556C123.508 15.9618 124.112 15.7149 124.903 15.7149C126.388 15.7149 127.132 16.5044 127.132 18.0808V16.6922Z" fill="#8E1830"/>
<path d="M133.781 26.1864H127.132V27.5751H133.781V26.1864Z" fill="#8E1830"/>
<path d="M63.0161 20.781C63.0161 22.7354 64.0925 23.854 65.9676 23.854C66.9785 23.854 67.7773 23.5197 68.3377 22.8588C68.8667 22.2365 69.1339 21.393 69.1339 20.3567V18.9963C69.1339 20.0326 68.8667 20.8735 68.3377 21.4984C67.7773 22.1593 66.9785 22.4936 65.9676 22.4936C64.0925 22.4936 63.0161 21.3724 63.0161 19.4206V20.781Z" fill="#F16866"/>
<path d="M63.0136 10.6361H57.8098V11.9964H63.0136V10.6361Z" fill="#F16866"/>
<path d="M82.5372 10.6361H77.3335V11.9964H82.5372V10.6361Z" fill="#F16866"/>
<path d="M5.6648 7.88448C8.00347 5.55462 10.9759 4.37169 14.4957 4.37169C16.7113 4.37169 18.7672 4.86544 20.6056 5.84007C21.826 6.48811 22.8814 7.29558 23.764 8.24964L24.534 7.81761C23.5231 6.44953 22.2058 5.32832 20.6056 4.4797C18.7672 3.50507 16.7139 3.01132 14.4957 3.01132C10.9759 3.01132 8.00347 4.19425 5.6648 6.52411C3.32088 8.85654 2.13452 11.7959 2.13452 15.2546C2.13452 15.4835 2.13976 15.7098 2.15023 15.9335C2.29689 12.7679 3.4754 10.06 5.6648 7.8819V7.88448Z" fill="#F16866"/>
<path d="M9.58259 21.5267C10.7506 22.9565 12.5498 23.6791 14.9251 23.6791C17.709 23.6791 19.6104 22.6634 20.5741 20.6627L21.0612 19.6495H20.3908C19.3799 21.4213 17.5414 22.3213 14.9251 22.3213C12.5472 22.3213 10.7506 21.5962 9.58259 20.1689C8.59265 18.9603 8.02958 17.5511 7.90387 15.9773C7.88554 16.1984 7.87769 16.4247 7.87769 16.6561C7.87769 18.5077 8.45122 20.1484 9.58259 21.5293V21.5267Z" fill="#F16866"/>
<path d="M176.807 18.1425C176.179 17.8134 175.495 17.5331 174.778 17.3119C174.055 17.0907 173.371 16.939 172.748 16.8619C172.022 16.7744 171.404 16.6356 170.912 16.4504C170.409 16.2653 170.126 16.0107 169.967 15.7612C169.804 16.0415 169.778 16.3296 169.778 16.4761C169.778 16.8182 169.925 17.4456 170.912 17.8108C171.404 17.9934 172.022 18.1322 172.748 18.2222C173.371 18.2994 174.055 18.4511 174.778 18.6723C175.498 18.8934 176.179 19.1712 176.807 19.5029C177.352 19.7883 177.818 20.2615 178.193 20.9044C178.475 21.393 178.654 21.969 178.727 22.6274C178.75 22.4114 178.764 22.1902 178.764 21.9639C178.764 21.0124 178.572 20.1972 178.193 19.544C177.818 18.9011 177.352 18.428 176.807 18.1425Z" fill="#F16866"/>
<path d="M166.554 12.9582C167.919 11.9939 169.524 11.5027 171.326 11.5027C174.063 11.5027 176.061 12.251 177.376 13.7811L178.132 13.5137C176.888 11.2481 174.655 10.1449 171.326 10.1449C169.524 10.1449 167.919 10.6335 166.554 11.6004C165.245 12.5262 164.608 13.8043 164.608 15.5067C164.608 15.7381 164.624 15.9567 164.648 16.1701C164.802 14.8098 165.431 13.7528 166.554 12.9582Z" fill="#F16866"/>
<path d="M26.6396 13.7065H15.2893V15.0669H26.6396V13.7065Z" fill="#F16866"/>
<path d="M121.737 3.57707H116.533V4.93744H121.737V3.57707Z" fill="#F16866"/>
<path d="M99.5968 13.9611C101.291 12.3076 103.371 11.5027 105.953 11.5027C107.59 11.5027 109.106 11.891 110.463 12.6599C111.227 13.0945 111.895 13.6191 112.463 14.2234L113.218 13.8017C112.524 12.7833 111.599 11.945 110.463 11.2995C109.106 10.5306 107.59 10.1423 105.953 10.1423C103.371 10.1423 101.291 10.9472 99.5968 12.6008C97.9023 14.2543 97.0774 16.2653 97.0774 18.7494C97.0774 18.9809 97.0879 19.2072 97.101 19.4283C97.2398 17.2528 98.0595 15.4578 99.5968 13.9586V13.9611Z" fill="#F16866"/>
<path d="M168.424 23.6174C169.042 24.6538 170.035 25.1964 171.326 25.1964C173.13 25.1964 173.269 24.0597 173.269 23.71C173.269 23.5171 173.222 23.2934 173.075 23.0723C172.85 23.458 172.363 23.836 171.323 23.836C170.032 23.836 169.04 23.2934 168.421 22.2571L163.975 24.2089C164.2 24.5818 164.462 24.9186 164.758 25.2247L168.421 23.6149L168.424 23.6174Z" fill="#F16866"/>
<path d="M138.705 2.09584C137.89 2.09584 137.204 2.38129 136.61 2.96504C136.015 3.54879 135.725 4.20968 135.725 4.9863C135.725 5.22289 135.756 5.44919 135.808 5.6652C135.932 5.17146 136.196 4.72914 136.607 4.32283C137.202 3.73908 137.888 3.45364 138.702 3.45364C139.517 3.45364 140.166 3.73908 140.761 4.32283C141.175 4.72914 141.436 5.17146 141.56 5.6652C141.615 5.44919 141.646 5.22289 141.646 4.9863C141.646 4.20968 141.355 3.54879 140.761 2.96504C140.164 2.38129 139.491 2.09584 138.702 2.09584H138.705Z" fill="#F16866"/>
<path d="M141.287 10.6361H136.083V11.9964H141.287V10.6361Z" fill="#F16866"/>
<path d="M42.3766 14.3443L36.0284 3.57707H29.9788V4.93744H36.0284L42.3766 15.7021L48.7222 4.93744H54.7745V3.57707H48.7222L42.3766 14.3443Z" fill="#F16866"/>
<path d="M157.302 18.8446L157.04 17.9419C156.993 17.7825 156.938 17.6308 156.88 17.4842H149.804C149.741 17.6153 149.681 17.7491 149.628 17.8905L149.272 18.8446H157.299H157.302Z" fill="#F16866"/>
<path d="M153.256 10.1423C150.676 10.1423 148.604 10.9524 146.92 12.6162C145.236 14.2826 144.417 16.3116 144.417 18.8214C144.417 19.0503 144.427 19.2715 144.44 19.4926C144.579 17.2965 145.394 15.4861 146.92 13.974C148.604 12.3102 150.676 11.5001 153.256 11.5001C155.835 11.5001 157.846 12.2922 159.481 13.9174C160.955 15.3858 161.746 17.1576 161.89 19.3126C161.906 19.1017 161.916 18.8883 161.916 18.6774C161.916 16.1907 161.12 14.1874 159.483 12.557C157.849 10.9292 155.812 10.1398 153.258 10.1398L153.256 10.1423Z" fill="#F16866"/>
<path d="M154.083 23.4503C152.101 23.4503 150.718 22.8357 149.958 21.627H149.27L149.767 22.6428C150.469 24.0803 151.922 24.8106 154.086 24.8106C155.165 24.8106 156.181 24.4969 157.113 23.8772L159.554 25.8984C159.858 25.703 160.146 25.4895 160.416 25.253L157.113 22.5194C156.181 23.1391 155.165 23.4528 154.086 23.4528L154.083 23.4503Z" fill="#F16866"/>
<path d="M88.0763 10.1423C86.1933 10.1423 84.8106 10.7749 83.8442 12.0736L82.5374 13.83V15.1903L83.8442 13.434C84.8106 12.1327 86.196 11.5027 88.0763 11.5027C89.8388 11.5027 91.2085 12.0762 92.2587 13.2539C93.3194 14.4446 93.8589 16.2884 93.8589 18.734V17.3736C93.8589 14.928 93.3194 13.0842 92.2587 11.8936C91.2059 10.7132 89.8388 10.1423 88.0763 10.1423Z" fill="#F16866"/>
<path d="M127.276 10.1423C125.393 10.1423 124.01 10.7749 123.044 12.0736L121.737 13.83V15.1903L123.044 13.434C124.01 12.1327 125.396 11.5027 127.276 11.5027C129.039 11.5027 130.408 12.0762 131.458 13.2539C132.519 14.4446 133.059 16.2884 133.059 18.734V17.3736C133.059 14.928 132.519 13.0842 131.458 11.8936C130.406 10.7158 129.039 10.1423 127.276 10.1423Z" fill="#F16866"/>
<path d="M74.3375 10.6361H69.1338V11.9964H74.3375V10.6361Z" fill="#F16866"/>
<path d="M105.953 22.4962C104.913 22.4962 104.031 22.1311 103.329 21.4136C102.789 20.8607 102.459 20.1972 102.339 19.4309C102.305 19.6495 102.284 19.8758 102.284 20.1098C102.284 21.1667 102.635 22.0616 103.329 22.7714C104.031 23.4888 104.913 23.854 105.953 23.854C107.187 23.854 108.174 23.4168 108.847 22.5785L112.479 24.6358C112.749 24.3426 113 24.0315 113.223 23.6971L108.847 21.2181C108.174 22.0565 107.187 22.4936 105.953 22.4936V22.4962Z" fill="#F16866"/>
<path d="M54.3343 52C54.2558 52 54.1772 52 54.096 51.9949C53.313 51.9537 52.4854 51.6374 51.6316 51.0537C50.8538 50.529 50.1598 49.7241 49.5705 48.6621C49.0311 47.6926 48.5701 46.5817 48.2035 45.3602C47.8421 44.1618 47.5645 42.8709 47.3785 41.5259C47.1926 40.1939 47.0826 38.8875 47.0485 37.6454C47.0145 36.3802 47.0721 35.1998 47.2214 34.1301C47.3838 32.978 47.6509 32.0599 48.0411 31.3219C48.3606 30.6996 48.8294 30.1981 49.4291 29.8407C49.9529 29.5295 50.5422 29.3726 51.1759 29.3726C51.299 29.3726 51.4273 29.3778 51.5557 29.3906C52.5325 29.4858 53.3156 29.9358 53.8184 30.6919C54.2112 31.2807 54.4915 32.0136 54.6538 32.8648C54.7979 33.6363 54.8712 34.5158 54.8686 35.4801C54.8686 36.3802 54.8633 37.3034 54.8555 38.2523C54.8476 39.1704 54.8738 40.0987 54.9314 41.0142C54.9786 41.7908 55.099 42.516 55.2902 43.1795C55.4657 42.6266 55.615 41.9888 55.7354 41.2688C55.9004 40.2864 56.0602 39.2809 56.2147 38.2755C56.3744 37.2365 56.5604 36.2105 56.7673 35.2307C56.9899 34.1789 57.2937 33.2634 57.6734 32.51L57.6865 32.4842C57.9248 32.0394 58.3098 31.6973 58.8022 31.4916C59.0772 31.3759 59.3626 31.3193 59.6533 31.3193C59.9073 31.3193 60.1614 31.3656 60.4102 31.453L60.4468 31.4659C60.9444 31.6639 61.3346 32.0188 61.573 32.4894C61.7825 32.9034 61.8663 33.3303 61.8296 33.7649C61.6542 35.5933 61.387 37.45 61.0361 39.2887C60.6878 41.1042 60.3447 42.8966 60.0042 44.6633C59.91 45.1904 59.7659 45.787 59.5826 46.4197C59.394 47.0626 59.161 47.7003 58.8886 48.3175C58.6031 48.963 58.2548 49.5647 57.8515 50.1073C57.3984 50.7193 56.8616 51.1977 56.254 51.5243C55.6726 51.838 55.0283 51.9974 54.3343 51.9974V52Z" fill="#231F20"/>
<path d="M67.3345 47.87C67.2141 47.87 67.0962 47.8675 66.9758 47.8623C65.8941 47.8109 64.8178 47.5486 63.7781 47.0857C62.8222 46.664 62.0548 46.0725 61.5049 45.3293C60.9732 44.6118 60.6197 43.8044 60.4573 42.9326C60.3002 42.0943 60.3054 41.2096 60.473 40.3044C60.6354 39.4327 60.9261 38.566 61.3399 37.7303C61.7484 36.9074 62.2696 36.1205 62.8929 35.3901C63.5188 34.6572 64.2338 34.0143 65.0142 33.482C65.813 32.9368 66.6981 32.5203 67.6462 32.2477C68.3454 32.0471 69.0683 31.9442 69.8015 31.9442C70.0896 31.9442 70.3856 31.9596 70.6789 31.9905C71.7971 32.1191 72.7007 32.5125 73.3737 33.158C74.0154 33.7726 74.4501 34.5081 74.6675 35.3413C74.877 36.1488 74.877 37.0051 74.6675 37.8846C74.4606 38.7563 74.0573 39.5535 73.4654 40.2581C73.2925 40.4664 73.1171 40.6619 72.939 40.847C73.7273 41.1299 74.1306 41.6185 74.3322 41.994C74.547 42.3951 74.746 43.0586 74.4789 43.9432C74.2851 44.5887 73.8477 45.175 73.1799 45.6919C72.6797 46.0854 72.1245 46.4299 71.5326 46.7077C71.0089 46.9571 70.5794 47.1474 70.2625 47.2709C69.317 47.6643 68.3271 47.87 67.3345 47.87Z" fill="#231F20"/>
<path d="M84.0275 45.6148C83.4696 45.6148 82.9668 45.4605 82.5373 45.1596C82.1026 44.869 81.7516 44.5013 81.495 44.0692C81.275 43.7015 81.0995 43.3029 80.9712 42.8863C80.8507 42.4954 80.7617 42.0891 80.7067 41.6777C80.6569 41.3151 80.6177 40.9576 80.5915 40.6156C80.5784 40.5024 80.5653 40.3867 80.5548 40.271C80.3846 40.6516 80.2589 41.0553 80.1855 41.4719C80.1122 41.8422 80.031 42.2203 79.942 42.6137C79.8294 43.1023 79.6591 43.5652 79.4365 43.9869C79.1642 44.4987 78.7923 44.9076 78.3314 45.2033C77.9411 45.4527 77.4907 45.5813 76.9879 45.5813C76.781 45.5813 76.5636 45.5582 76.341 45.5145C75.6234 45.3859 75.0263 45.0336 74.6125 44.4961C74.2249 43.9947 74.0154 43.4032 73.9918 42.7449C73.9735 42.2563 74.0076 41.6905 74.0992 41.0168C74.1804 40.4176 74.2799 39.767 74.3978 39.0829C74.513 38.4246 74.623 37.7791 74.7304 37.1491C74.8325 36.5396 74.9111 35.9996 74.9635 35.5419C75.0132 35.1227 75.1389 34.719 75.338 34.3332C75.6339 33.7572 76.1551 33.3663 76.8098 33.23C77.0402 33.1786 77.2524 33.1529 77.4567 33.1529C77.6138 33.1529 77.7657 33.1683 77.9097 33.2017C78.2476 33.2763 78.5487 33.4229 78.8054 33.6363C78.808 33.6389 78.8132 33.6415 78.8159 33.644C79.6303 33.0269 80.3715 32.6385 81.0629 32.4637C81.4321 32.3711 81.7909 32.3248 82.1314 32.3248C82.7678 32.3248 83.3518 32.4842 83.8625 32.8031C84.5748 33.2454 85.1405 33.932 85.5438 34.845C85.879 35.6062 86.1593 36.4522 86.374 37.3625C86.5835 38.2523 86.7433 39.1652 86.8454 40.073C86.9449 40.9396 87.0287 41.7111 87.1021 42.3797C87.1675 42.8632 87.1309 43.3312 86.9973 43.7735C86.8218 44.3495 86.4316 44.8201 85.8659 45.139C85.4207 45.3885 84.9127 45.5453 84.3522 45.6019C84.2448 45.6122 84.1375 45.6173 84.0327 45.6173L84.0275 45.6148Z" fill="#231F20"/>
<path d="M95.0634 47.2837C94.3092 47.2837 93.5261 47.186 92.7378 46.9957C91.3472 46.6588 89.9775 45.9619 88.6707 44.9256C87.8405 44.2724 87.1936 43.4829 86.751 42.5803C86.3215 41.7059 86.0596 40.7956 85.9732 39.8698C85.8868 38.9492 85.9654 38.0234 86.2063 37.1182C86.4499 36.2079 86.8374 35.3799 87.3638 34.6572C87.9007 33.9166 88.5895 33.2994 89.4066 32.8263C90.2604 32.3325 91.2293 32.0754 92.29 32.0599H92.3817C93.3716 32.0599 94.4532 32.2965 95.595 32.7646C96.0691 32.9574 96.5536 33.2069 97.0511 33.5052C96.9673 33.1374 96.8678 32.7671 96.7552 32.3968C96.5536 31.7436 96.3152 31.1085 96.0507 30.5041C95.7862 29.905 95.5191 29.3803 95.2624 28.9483L95.2441 28.9175L95.2284 28.884C95.2074 28.8429 95.1944 28.8249 95.1917 28.8197C95.0975 28.6963 95.011 28.5574 94.9351 28.4083L94.9141 28.3697L94.8984 28.3286C94.6627 27.7551 94.6182 27.1791 94.7701 26.6159C94.9167 26.0784 95.1917 25.6284 95.5872 25.2761C95.9905 24.9186 96.4671 24.7001 97.0066 24.6229C97.114 24.6075 97.2188 24.5998 97.3235 24.5998C97.8211 24.5998 98.3056 24.7566 98.7692 25.0704C99.3689 25.469 99.945 26.0399 100.477 26.7625C100.964 27.4259 101.409 28.1486 101.799 28.9123C102.179 29.6529 102.525 30.4167 102.823 31.1856C103.119 31.9468 103.352 32.6283 103.52 33.2171C104.025 34.9915 104.211 36.6759 104.072 38.2215C103.931 39.7747 103.541 41.1788 102.912 42.3951C102.271 43.6321 101.406 44.6736 100.346 45.4887C99.2746 46.3091 98.0751 46.8594 96.7814 47.1191C96.2236 47.2323 95.6448 47.2889 95.066 47.2889L95.0634 47.2837ZM92.5205 38.206C92.4576 38.2112 92.3476 38.2266 92.3109 38.2677C92.2638 38.3192 92.1983 38.4143 92.1774 38.6278C92.159 38.8052 92.201 38.9826 92.3109 39.1858C92.4288 39.4044 92.6488 39.6101 92.9657 39.8004C93.2826 39.9907 93.788 40.0987 94.427 40.1167H94.4558C94.5108 40.1193 94.5632 40.1219 94.6156 40.1219C94.8251 40.1219 95.0189 40.0987 95.197 40.055C95.0529 39.9393 94.9115 39.821 94.7701 39.7053C94.2646 39.2912 93.733 38.8926 93.1935 38.5198C92.7719 38.2215 92.5676 38.206 92.5309 38.206H92.5205Z" fill="#231F20"/>
<path d="M107.354 45.6945C106.731 45.6868 106.118 45.4836 105.531 45.0927C104.819 44.6324 104.245 43.9252 103.845 42.9969C103.496 42.1894 103.247 41.2868 103.106 40.3147C102.967 39.3658 102.928 38.3706 102.986 37.36C103.043 36.3519 103.187 35.4004 103.407 34.5287C103.64 33.6157 103.962 32.8211 104.371 32.1654C104.717 31.6073 105.125 31.1933 105.589 30.9259C105.13 30.7021 104.416 30.1467 104.353 28.8506C104.316 28.0997 104.397 27.4748 104.604 26.9399C104.816 26.3896 105.123 25.937 105.51 25.6027C105.929 25.2401 106.406 25.0189 106.932 24.9444C107.068 24.9264 107.207 24.9161 107.341 24.9161C107.702 24.9161 108.056 24.9855 108.388 25.1218C108.834 25.307 109.219 25.595 109.528 25.9807C109.86 26.3973 110.051 26.8988 110.099 27.4722C110.172 28.3594 109.934 29.1695 109.412 29.8149C109.09 30.2161 108.726 30.5324 108.328 30.7639C108.422 30.8076 108.511 30.859 108.598 30.9156C109.153 31.2782 109.543 31.8079 109.763 32.4945C109.939 33.0449 110.017 33.6826 109.996 34.3872C109.978 34.9993 109.934 35.6139 109.865 36.2182C109.797 36.8277 109.711 37.4114 109.609 37.9489C109.499 38.5198 109.467 38.8335 109.46 38.9955V39.0212C109.436 39.3452 109.433 39.6667 109.452 39.9778C109.46 40.127 109.465 40.2761 109.47 40.4253C109.852 40.6593 110.151 40.9396 110.366 41.2611C110.719 41.7934 110.866 42.3514 110.808 42.9249C110.756 43.4418 110.554 43.9304 110.211 44.3753C109.886 44.797 109.465 45.1287 108.962 45.3627C108.488 45.5839 107.967 45.697 107.419 45.697H107.354V45.6945Z" fill="#231F20"/>
<path d="M119.472 42.8272C118.914 42.8272 118.411 42.6729 117.981 42.372C117.547 42.0814 117.196 41.7137 116.939 41.2816C116.719 40.9139 116.541 40.5153 116.415 40.0987C116.297 39.713 116.208 39.3067 116.151 38.8901C116.101 38.5249 116.062 38.1674 116.036 37.828C116.022 37.7149 116.009 37.5991 115.999 37.4834C115.829 37.864 115.703 38.2677 115.63 38.6843C115.559 39.0418 115.48 39.4095 115.386 39.8235C115.273 40.3147 115.103 40.7776 114.878 41.1968C114.606 41.7085 114.234 42.1174 113.773 42.4131C113.383 42.6626 112.93 42.7912 112.429 42.7912C112.222 42.7912 112.005 42.768 111.782 42.7243C111.065 42.5957 110.468 42.2434 110.054 41.7085C109.666 41.2045 109.457 40.613 109.433 39.9547C109.415 39.4687 109.452 38.9029 109.543 38.2266C109.624 37.6223 109.727 36.9691 109.842 36.2928C109.957 35.6344 110.067 34.989 110.174 34.3589C110.277 33.7495 110.355 33.2094 110.408 32.7543C110.457 32.3351 110.583 31.9314 110.782 31.5456C111.075 30.9696 111.599 30.5787 112.254 30.4424C112.484 30.391 112.696 30.3653 112.901 30.3653C113.058 30.3653 113.21 30.3807 113.354 30.4141C113.692 30.4887 113.993 30.6353 114.249 30.8487C114.252 30.8513 114.257 30.8539 114.26 30.8564C115.074 30.2393 115.816 29.8509 116.507 29.6761C116.876 29.5835 117.235 29.5372 117.575 29.5372C118.212 29.5372 118.796 29.6967 119.307 30.0155C120.019 30.4578 120.585 31.1445 120.988 32.0574C121.326 32.8211 121.603 33.6672 121.818 34.5749C122.028 35.4647 122.185 36.3751 122.289 37.2828C122.389 38.1494 122.475 38.9184 122.549 39.5895C122.612 40.0704 122.578 40.541 122.444 40.9833C122.271 41.5594 121.878 42.03 121.313 42.3488C120.867 42.5983 120.357 42.7552 119.796 42.8117C119.689 42.822 119.582 42.8272 119.477 42.8272H119.472Z" fill="#231F20"/>
<path d="M127.907 47.9549C127.166 47.9549 126.414 47.816 125.678 47.5434C124.804 47.2169 123.981 46.664 123.23 45.8951C122.86 45.5247 122.504 45.0439 122.172 44.4678C121.831 43.8789 121.588 43.2592 121.446 42.6266C121.286 41.9142 121.305 41.2225 121.499 40.5667C121.661 40.0164 122.083 39.2578 123.154 38.7718C123.279 38.7178 123.402 38.6715 123.526 38.6303C122.989 38.3732 122.52 38.0183 122.13 37.5657C121.588 36.9408 121.237 36.1539 121.09 35.2281C120.949 34.3512 121.043 33.3406 121.365 32.2271C121.601 31.4016 121.975 30.6121 122.478 29.8818C122.97 29.1669 123.565 28.5214 124.243 27.9685C124.924 27.4131 125.686 26.9553 126.508 26.6082C127.344 26.2559 128.226 26.0424 129.13 25.9704C129.271 25.9601 129.41 25.955 129.544 25.955C129.829 25.955 130.102 25.9807 130.353 26.0321C130.649 26.0939 130.934 26.1684 131.202 26.2533C131.463 26.3382 131.72 26.4282 131.969 26.5207C132.116 26.5773 132.283 26.6159 132.466 26.6365L132.498 26.6416C133.174 26.7368 133.71 26.9836 134.098 27.3719C134.441 27.7165 134.685 28.1357 134.816 28.614C134.91 28.956 134.981 29.3289 135.025 29.7275C135.054 29.9924 135.109 30.2495 135.188 30.499C135.643 31.8851 136.002 33.2712 136.246 34.6109C136.502 36.0227 136.513 37.522 136.277 39.0675C136.094 40.2607 135.777 41.4256 135.337 42.5314C134.863 43.7221 134.116 44.7841 133.116 45.6842C132.422 46.3297 131.657 46.8594 130.853 47.2477C130.015 47.654 129.159 47.8855 128.302 47.942C128.171 47.9498 128.041 47.9549 127.91 47.9549H127.907ZM126.247 39.0984C126.291 39.1292 126.336 39.1626 126.378 39.1987C126.715 39.4687 127.024 39.7927 127.302 40.163C127.501 40.4304 127.708 40.685 127.912 40.919C128.281 41.3485 128.475 41.3896 128.478 41.3896C128.488 41.3896 128.515 41.3896 128.515 41.3896C128.598 41.3896 128.716 41.3716 128.886 41.2405C129.122 41.0553 129.342 40.7622 129.536 40.3687C129.761 39.9084 129.931 39.407 130.036 38.8721C130.123 38.4349 130.162 37.9952 130.154 37.558C129.863 37.774 129.567 37.9669 129.264 38.1366C128.397 38.6226 127.53 38.9312 126.687 39.0521C126.54 39.0726 126.391 39.0906 126.244 39.1009L126.247 39.0984ZM128.672 31.5456C128.593 31.561 128.302 31.6613 127.815 32.2605C127.572 32.5537 127.441 32.8186 127.407 33.086C127.396 33.1554 127.394 33.2171 127.391 33.266C127.501 33.194 127.666 33.0629 127.886 32.8314C128.525 32.1731 128.645 31.7873 128.666 31.6536C128.672 31.6125 128.677 31.5791 128.68 31.5482C128.677 31.5482 128.672 31.5482 128.669 31.5482L128.672 31.5456Z" fill="#231F20"/>
<path d="M60.0015 32.5383C59.7527 32.4482 59.5039 32.4534 59.2604 32.5563C59.0168 32.6591 58.8387 32.8134 58.7235 33.0243C58.3856 33.6929 58.1159 34.5055 57.9142 35.4647C57.7126 36.4239 57.5319 37.4191 57.3747 38.4503C57.215 39.479 57.0552 40.4819 56.8929 41.4565C56.7305 42.4311 56.5184 43.2695 56.2565 43.9664C56.0574 44.5141 55.8636 44.887 55.6751 45.085C55.4865 45.283 55.3058 45.3576 55.133 45.3062C54.9601 45.2547 54.7977 45.085 54.6432 44.7944C54.4887 44.5038 54.3473 44.1438 54.219 43.7144C53.9676 42.9095 53.8104 42.0325 53.7528 41.0836C53.6952 40.1347 53.669 39.1884 53.6742 38.2446C53.6821 37.3008 53.6847 36.3802 53.6873 35.4801C53.6873 34.5827 53.6219 33.7803 53.4909 33.0757C53.36 32.3711 53.1374 31.7874 52.831 31.327C52.5219 30.8667 52.0584 30.6044 51.4377 30.5427C50.9113 30.4913 50.4425 30.589 50.034 30.8307C49.6254 31.0724 49.3059 31.4145 49.0807 31.8542C48.756 32.4662 48.5255 33.2763 48.3841 34.2869C48.2426 35.2976 48.1876 36.4059 48.2217 37.612C48.2557 38.8181 48.3605 40.0704 48.5412 41.3665C48.7219 42.6626 48.9838 43.8841 49.3295 45.031C49.6752 46.1779 50.0994 47.2014 50.6023 48.1066C51.1051 49.0118 51.6734 49.6779 52.3046 50.1047C52.9776 50.5651 53.5931 50.8094 54.1561 50.8376C54.7192 50.8659 55.2272 50.7579 55.6829 50.5111C56.1386 50.2642 56.5419 49.9016 56.8955 49.4258C57.249 48.9501 57.5502 48.4255 57.8042 47.8572C58.0557 47.2863 58.2704 46.7025 58.4459 46.1034C58.6213 45.5042 58.7523 44.9513 58.844 44.4498C59.1844 42.6832 59.5275 40.8908 59.8758 39.0778C60.2215 37.2623 60.4808 35.4596 60.6536 33.6697C60.6719 33.4486 60.6274 33.2274 60.5148 33.0063C60.4022 32.7851 60.232 32.6308 60.0015 32.5383ZM72.5513 33.9861C72.0642 33.5206 71.399 33.2377 70.5504 33.14C69.6652 33.0449 68.8089 33.1169 67.9787 33.356C67.1485 33.5952 66.3838 33.9526 65.6871 34.4309C64.9879 34.9067 64.3594 35.475 63.7963 36.1333C63.2332 36.7917 62.7697 37.4937 62.4004 38.2369C62.0312 38.9801 61.7771 39.7387 61.6331 40.5102C61.4917 41.2816 61.4864 42.0197 61.6174 42.7243C61.7483 43.4289 62.0312 44.0718 62.4607 44.6504C62.8902 45.2316 63.4925 45.6919 64.2677 46.0339C65.1791 46.4402 66.1009 46.664 67.0385 46.7103C67.9761 46.7565 68.9031 46.5868 69.825 46.2036C70.1131 46.0879 70.5164 45.9105 71.0271 45.6688C71.5404 45.427 72.0144 45.1339 72.4544 44.7867C72.9284 44.419 73.2269 44.0307 73.3527 43.6166C73.4784 43.2026 73.4574 42.8426 73.2924 42.5366C73.1274 42.228 72.8289 42.0145 72.3994 41.8911C71.9699 41.7702 71.4461 41.8242 70.8307 42.0557C70.2859 42.246 69.7202 42.4594 69.1336 42.6986C68.547 42.9377 68.0153 43.1075 67.5361 43.2103C67.0594 43.3132 66.6666 43.3055 66.3576 43.1923C66.0485 43.0792 65.9019 42.7654 65.9176 42.2511L66.0774 42.156L66.245 42.1431C66.918 42.1637 67.5413 42.138 68.1149 42.066C68.6884 41.994 69.2331 41.8602 69.749 41.6622C70.265 41.4668 70.7521 41.1942 71.2078 40.847C71.6635 40.4999 72.1139 40.0601 72.5565 39.5304C73.0331 38.9621 73.3553 38.3269 73.5203 37.6274C73.6879 36.9279 73.6879 36.2619 73.5255 35.6344C73.3631 35.007 73.0384 34.4592 72.5513 33.9938V33.9861ZM70.2021 37.6223C69.9455 38.0286 69.6155 38.3706 69.2069 38.6483C68.801 38.9286 68.3558 39.1266 67.8687 39.2475C67.3842 39.3684 66.9416 39.3709 66.5409 39.2552C66.6614 38.9158 66.863 38.5558 67.138 38.1777C67.4156 37.7997 67.7377 37.4628 68.1044 37.1671C68.4736 36.8739 68.8691 36.6451 69.2934 36.4831C69.7176 36.3211 70.1314 36.2799 70.5295 36.3571C70.5661 36.7942 70.4535 37.216 70.1995 37.6197L70.2021 37.6223ZM85.672 40.199C85.5724 39.3272 85.4232 38.4683 85.2241 37.6223C85.0251 36.7762 84.7711 36.0047 84.462 35.3027C84.153 34.6032 83.7418 34.0941 83.2311 33.7778C82.7205 33.4615 82.0945 33.3946 81.3534 33.5823C80.6123 33.77 79.7297 34.3255 78.7031 35.2487C78.5616 35.1124 78.4438 34.9813 78.3495 34.8501C78.2552 34.719 78.1531 34.6084 78.0431 34.5158C77.9331 34.4232 77.8022 34.3615 77.6503 34.3281C77.4984 34.2946 77.302 34.3049 77.0663 34.3589C76.7546 34.4207 76.5294 34.5852 76.3932 34.8527C76.257 35.1201 76.1706 35.3927 76.1365 35.6704C76.0816 36.1513 76.0004 36.7068 75.8956 37.3394C75.7882 37.972 75.6782 38.6175 75.563 39.2758C75.4478 39.9367 75.3509 40.5667 75.2697 41.1685C75.1885 41.7702 75.1545 42.282 75.1702 42.7012C75.1859 43.1229 75.3142 43.4881 75.5525 43.7992C75.7908 44.1104 76.1287 44.3032 76.566 44.3804C77.0217 44.473 77.3962 44.4241 77.6896 44.2364C77.9829 44.0487 78.216 43.7864 78.3967 43.4521C78.5747 43.1177 78.7083 42.7552 78.7973 42.3617C78.8864 41.9708 78.965 41.6057 79.0304 41.2714C79.1718 40.4896 79.4495 39.7644 79.8606 39.0881C80.2718 38.4143 80.7249 37.7817 81.2172 37.1928L81.4346 37.1208C81.5341 37.6634 81.5996 38.2215 81.6284 38.7949C81.6572 39.371 81.7017 39.9393 81.7672 40.5024C81.7934 40.8316 81.83 41.1711 81.8798 41.5259C81.9269 41.8782 82.0029 42.2228 82.1024 42.552C82.2045 42.8837 82.3407 43.1923 82.5136 43.4829C82.6864 43.7709 82.9221 44.0152 83.2181 44.2107C83.4957 44.4087 83.8335 44.4884 84.2316 44.4473C84.6296 44.4061 84.9806 44.3007 85.2844 44.131C85.5882 43.9612 85.7846 43.7298 85.871 43.4392C85.96 43.1486 85.981 42.84 85.9365 42.5134C85.8631 41.8422 85.7767 41.0682 85.6772 40.1964L85.672 40.199ZM101.728 31.5971C101.446 30.8667 101.121 30.1467 100.754 29.4318C100.388 28.7194 99.979 28.0534 99.5286 27.4388C99.0781 26.8242 98.6041 26.3536 98.1117 26.0244C97.7948 25.811 97.4858 25.7261 97.182 25.7673C96.8782 25.811 96.6111 25.9319 96.3859 26.1324C96.158 26.333 96.0035 26.5928 95.9171 26.9116C95.8307 27.2305 95.8569 27.5571 95.9983 27.8965C96.0428 27.984 96.0899 28.0637 96.1423 28.1331C96.1947 28.2026 96.2418 28.2797 96.289 28.3697C96.5692 28.8429 96.8547 29.4009 97.1401 30.049C97.4256 30.697 97.677 31.3682 97.8917 32.0651C98.1065 32.762 98.2715 33.4563 98.3841 34.1429C98.4967 34.8321 98.5281 35.4416 98.4784 35.9765C97.2946 34.971 96.1868 34.2561 95.155 33.8318C94.1205 33.41 93.1751 33.2043 92.3187 33.2172C91.4623 33.23 90.6924 33.4332 90.0167 33.824C89.3384 34.2175 88.778 34.719 88.3328 35.331C87.8876 35.943 87.5628 36.6374 87.3559 37.414C87.149 38.1906 87.0809 38.9749 87.1569 39.767C87.2302 40.559 87.4528 41.3279 87.8221 42.0788C88.1913 42.8297 88.7256 43.4778 89.4222 44.0281C90.6007 44.9616 91.8028 45.5788 93.0311 45.8745C94.2593 46.1728 95.4326 46.2088 96.5535 45.9825C97.6744 45.7562 98.6984 45.2882 99.6307 44.5733C100.563 43.8584 101.309 42.9557 101.875 41.868C102.438 40.7802 102.784 39.5278 102.912 38.116C103.041 36.7042 102.868 35.1741 102.399 33.5232C102.242 32.9677 102.022 32.3248 101.739 31.5971H101.728ZM94.3981 41.2739C93.5365 41.2508 92.8582 41.0888 92.3554 40.7879C91.8552 40.487 91.4938 40.1373 91.2764 39.731C91.0564 39.3272 90.9674 38.9209 91.0093 38.5146C91.0512 38.1083 91.19 37.7714 91.4309 37.5066C91.6692 37.2391 92.0045 37.09 92.4287 37.0565C92.8556 37.0231 93.3349 37.1954 93.8717 37.576C94.4453 37.9694 94.9952 38.386 95.5269 38.8206C96.0559 39.2552 96.5928 39.6898 97.1323 40.1244C96.4514 40.9473 95.54 41.3305 94.3981 41.2739ZM106.141 29.905C106.518 30.0772 106.922 30.0901 107.349 29.9461C107.775 29.8021 108.158 29.5218 108.498 29.1C108.836 28.6809 108.983 28.1691 108.933 27.5674C108.904 27.2228 108.797 26.9322 108.611 26.6982C108.425 26.4667 108.2 26.2944 107.938 26.1864C107.676 26.0784 107.398 26.045 107.105 26.0861C106.809 26.1273 106.539 26.2533 106.296 26.4667C106.052 26.6776 105.856 26.9733 105.709 27.3514C105.563 27.7294 105.505 28.2103 105.534 28.794C105.56 29.3598 105.764 29.7301 106.141 29.9024V29.905ZM108.304 41.1453C108.312 40.7776 108.304 40.4124 108.286 40.0473C108.265 39.6821 108.268 39.3169 108.294 38.9466C108.307 38.6535 108.365 38.2497 108.462 37.738C108.561 37.2262 108.642 36.6785 108.705 36.0973C108.771 35.5161 108.81 34.935 108.828 34.3564C108.847 33.7778 108.786 33.2737 108.648 32.8443C108.511 32.4148 108.278 32.0934 107.954 31.8825C107.629 31.6691 107.173 31.6331 106.586 31.7693C106.128 31.8799 105.727 32.2142 105.379 32.7723C105.033 33.3303 104.756 34.0118 104.552 34.8167C104.347 35.6216 104.216 36.4933 104.164 37.432C104.109 38.3706 104.146 39.2809 104.274 40.1579C104.402 41.0373 104.62 41.8345 104.931 42.552C105.243 43.2695 105.662 43.7992 106.196 44.1438C106.589 44.4061 106.985 44.5398 107.377 44.545C107.77 44.5501 108.132 44.4781 108.464 44.3213C108.797 44.167 109.069 43.9535 109.279 43.6809C109.491 43.4083 109.611 43.1178 109.643 42.8143C109.674 42.5083 109.588 42.2048 109.386 41.8988C109.184 41.5954 108.823 41.3434 108.302 41.1453H108.304ZM121.119 37.4165C121.019 36.5448 120.87 35.6859 120.671 34.8398C120.472 33.9938 120.218 33.2223 119.909 32.5203C119.6 31.8208 119.189 31.3116 118.678 30.9953C118.167 30.679 117.541 30.6121 116.8 30.7999C116.059 30.9876 115.176 31.543 114.15 32.4662C114.008 32.33 113.891 32.1988 113.796 32.0677C113.702 31.9365 113.6 31.8259 113.49 31.7333C113.38 31.6408 113.249 31.5791 113.097 31.5456C112.945 31.5122 112.749 31.5225 112.513 31.5765C112.201 31.6382 111.976 31.8028 111.84 32.0702C111.704 32.3377 111.617 32.6103 111.583 32.888C111.528 33.3689 111.45 33.9243 111.342 34.5569C111.235 35.1896 111.125 35.835 111.01 36.4933C110.895 37.1542 110.798 37.7843 110.716 38.386C110.635 38.9878 110.601 39.4995 110.617 39.9187C110.633 40.3404 110.761 40.7056 110.999 41.0168C111.24 41.3279 111.578 41.5208 112.013 41.5979C112.469 41.6905 112.843 41.6417 113.134 41.4539C113.427 41.2662 113.66 41.0039 113.841 40.6696C114.019 40.3353 114.152 39.9727 114.242 39.5793C114.331 39.1884 114.409 38.8232 114.475 38.4889C114.616 37.7071 114.894 36.9819 115.305 36.3082C115.716 35.6344 116.169 35.0018 116.661 34.4129L116.879 34.3409C116.978 34.8835 117.044 35.4416 117.07 36.0176C117.099 36.5936 117.146 37.162 117.209 37.7251C117.235 38.0543 117.272 38.3937 117.321 38.7486C117.369 39.1009 117.444 39.4455 117.544 39.7747C117.646 40.1064 117.782 40.415 117.955 40.7056C118.128 40.9936 118.361 41.2379 118.66 41.4334C118.937 41.6314 119.275 41.7111 119.673 41.6699C120.071 41.6288 120.422 41.5234 120.726 41.3536C121.03 41.1839 121.226 40.9525 121.313 40.6619C121.402 40.3713 121.423 40.0627 121.378 39.7361C121.305 39.0649 121.218 38.2909 121.119 37.4191V37.4165ZM135.088 34.8192C134.852 33.5283 134.509 32.2014 134.064 30.8436C133.962 30.5221 133.894 30.193 133.857 29.8561C133.82 29.5192 133.763 29.2081 133.682 28.92C133.603 28.6346 133.462 28.3877 133.257 28.1846C133.053 27.9814 132.744 27.8503 132.33 27.7911C132.047 27.7577 131.786 27.696 131.545 27.606C131.304 27.5134 131.068 27.4337 130.838 27.3591C130.607 27.2871 130.363 27.2228 130.107 27.1688C129.85 27.1148 129.554 27.1019 129.222 27.1276C128.444 27.1894 127.692 27.3719 126.969 27.6754C126.247 27.9788 125.589 28.3749 124.995 28.8609C124.4 29.3469 123.884 29.905 123.452 30.535C123.017 31.165 122.701 31.8362 122.496 32.5485C122.219 33.5052 122.138 34.3409 122.253 35.0558C122.368 35.7707 122.625 36.3596 123.028 36.8225C123.429 37.2854 123.937 37.6094 124.55 37.7894C125.162 37.9694 125.817 38.0106 126.519 37.9103C127.221 37.81 127.941 37.5503 128.682 37.1362C129.423 36.7196 130.117 36.1488 130.767 35.4184L130.861 35.5496C131.123 36.0227 131.275 36.5756 131.317 37.2031C131.359 37.8306 131.317 38.4632 131.191 39.0958C131.065 39.7284 130.866 40.3224 130.594 40.8753C130.322 41.4282 129.997 41.8525 129.62 42.1483C129.243 42.444 128.834 42.5777 128.391 42.5469C127.951 42.5186 127.493 42.228 127.019 41.6802C126.791 41.4231 126.569 41.1479 126.349 40.8522C126.129 40.5565 125.888 40.307 125.629 40.0987C125.369 39.8904 125.076 39.749 124.754 39.6718C124.429 39.5973 124.062 39.6487 123.646 39.8287C123.107 40.073 122.766 40.4304 122.627 40.8985C122.488 41.3691 122.478 41.8628 122.593 42.3848C122.711 42.9069 122.91 43.4135 123.193 43.9047C123.476 44.3958 123.769 44.7944 124.076 45.1004C124.707 45.7459 125.377 46.2036 126.089 46.4685C126.802 46.7334 127.511 46.8414 128.216 46.7951C128.92 46.7488 129.625 46.556 130.324 46.2165C131.023 45.8771 131.686 45.4167 132.312 44.8356C133.181 44.0512 133.82 43.146 134.232 42.1148C134.643 41.0836 134.933 40.0113 135.104 38.8978C135.324 37.4705 135.316 36.1102 135.08 34.8167L135.088 34.8192ZM129.832 31.8362C129.745 32.3737 129.384 32.9703 128.745 33.626C128.195 34.2021 127.713 34.4952 127.305 34.5081C126.896 34.5209 126.6 34.3846 126.417 34.0966C126.233 33.8086 126.176 33.4229 126.239 32.942C126.302 32.4611 126.522 31.9956 126.893 31.5431C127.42 30.8976 127.931 30.5221 128.425 30.4193C128.92 30.3164 129.3 30.391 129.565 30.6456C129.829 30.9002 129.916 31.2962 129.829 31.8336L129.832 31.8362Z" fill="#FFCD05"/>
<path d="M107.561 40.1141C107.543 40.4459 107.54 40.7853 107.561 41.1196C107.566 41.2302 107.569 41.3408 107.574 41.4514L107.579 41.1248C107.587 40.793 107.579 40.4536 107.561 40.1141Z" fill="white"/>
<path d="M104.882 38.5018C104.934 37.6094 105.057 36.7762 105.251 36.0202C105.437 35.2898 105.688 34.6675 105.995 34.1712C106.236 33.7829 106.492 33.5515 106.754 33.4897C106.924 33.4486 107.082 33.428 107.212 33.428C107.359 33.428 107.474 33.4537 107.55 33.5026C107.736 33.6235 107.867 33.8163 107.956 34.0889C108.016 34.2792 108.058 34.4952 108.082 34.7318C108.09 34.5981 108.098 34.4618 108.103 34.3281C108.119 33.8318 108.069 33.4023 107.956 33.05C107.87 32.7774 107.736 32.5871 107.55 32.4637C107.474 32.4148 107.362 32.3891 107.212 32.3891C107.079 32.3891 106.924 32.4097 106.754 32.4508C106.492 32.5125 106.236 32.744 105.995 33.1323C105.688 33.6286 105.437 34.2509 105.251 34.9813C105.057 35.7373 104.934 36.5731 104.882 37.4628C104.855 37.918 104.853 38.3655 104.871 38.8078C104.874 38.7049 104.876 38.6046 104.882 38.5018Z" fill="white"/>
<path d="M88.0475 38.6303C88.2309 37.9411 88.5242 37.3163 88.9144 36.7788C89.2967 36.2516 89.7891 35.8119 90.3757 35.4699C90.9493 35.1381 91.5857 34.971 92.3216 34.9607H92.387C93.1256 34.9607 93.961 35.1484 94.8698 35.5213C95.8283 35.9122 96.8811 36.5936 97.9993 37.5477L99.0652 38.4555L99.1909 37.0771C99.2224 36.7376 99.2198 36.3673 99.1936 35.9739C99.1936 35.9945 99.1936 36.0176 99.1909 36.0382L99.0652 37.4165L97.9993 36.5088C96.8811 35.5573 95.8257 34.8758 94.8698 34.4824C93.961 34.1095 93.1256 33.9218 92.387 33.9218H92.3216C91.5857 33.9321 90.9493 34.0992 90.3757 34.4309C89.7891 34.773 89.2967 35.2127 88.9144 35.7399C88.5216 36.2773 88.2309 36.9022 88.0475 37.5914C87.8668 38.2729 87.8066 38.9672 87.8668 39.659C87.8983 39.3144 87.9585 38.9698 88.0475 38.6278V38.6303Z" fill="white"/>
<path d="M90.6376 41.1016C90.9178 41.6159 91.3683 42.0634 91.9785 42.4286C92.586 42.7912 93.3927 42.9892 94.3747 43.0175C94.4455 43.02 94.5319 43.0226 94.6157 43.0226C95.878 43.0226 96.9125 42.5469 97.6903 41.6057L98.1433 41.0579L97.6248 40.6387C96.8548 41.5285 95.844 41.9837 94.6157 41.9837C94.5319 41.9837 94.4455 41.9837 94.3747 41.9785C93.39 41.9503 92.5834 41.7522 91.9785 41.3896C91.3683 41.0245 90.9178 40.577 90.6376 40.0627C90.4909 39.7927 90.3888 39.515 90.3312 39.2372C90.3155 39.3169 90.2971 39.3967 90.2893 39.479C90.2343 40.0267 90.3521 40.5719 90.6376 41.0991V41.1016Z" fill="white"/>
<path d="M123.191 33.7778C123.374 33.14 123.662 32.5305 124.05 31.9674C124.442 31.3965 124.916 30.8822 125.456 30.4398C125.995 30.0001 126.6 29.6375 127.255 29.3598C127.902 29.0872 128.583 28.9226 129.279 28.866C129.369 28.8583 129.458 28.8557 129.539 28.8557C129.693 28.8557 129.835 28.8686 129.958 28.8943C130.188 28.9432 130.408 28.9998 130.612 29.064C130.835 29.136 131.063 29.2158 131.283 29.2981C131.579 29.4086 131.901 29.4858 132.244 29.5269C132.558 29.5706 132.692 29.6632 132.742 29.7147C132.857 29.8304 132.938 29.9718 132.985 30.1415C133.053 30.3884 133.106 30.6661 133.137 30.967C133.179 31.345 133.258 31.7231 133.373 32.0882C133.81 33.4177 134.145 34.7241 134.376 35.979C134.46 36.4368 134.512 36.9099 134.536 37.3908C134.572 36.5448 134.52 35.7244 134.376 34.9401C134.145 33.6852 133.81 32.3788 133.373 31.0493C133.258 30.6841 133.179 30.3087 133.137 29.9281C133.103 29.6272 133.053 29.3495 132.985 29.1026C132.938 28.9329 132.86 28.794 132.742 28.6757C132.692 28.6243 132.558 28.5343 132.244 28.488C131.904 28.4494 131.579 28.3723 131.283 28.2591C131.063 28.1768 130.838 28.0971 130.612 28.0251C130.408 27.9608 130.186 27.9017 129.958 27.8554C129.835 27.8297 129.696 27.8168 129.539 27.8168C129.455 27.8168 129.369 27.8194 129.279 27.8271C128.583 27.8811 127.902 28.0483 127.255 28.3209C126.6 28.596 125.995 28.9586 125.456 29.4009C124.916 29.8432 124.442 30.3575 124.05 30.9284C123.662 31.4916 123.374 32.0985 123.191 32.7388C122.952 33.5669 122.874 34.2895 122.96 34.8887C122.999 34.5441 123.075 34.1712 123.191 33.7778Z" fill="white"/>
<path d="M49.1019 35.4236C49.2302 34.5004 49.4397 33.7572 49.7252 33.2197C49.8928 32.8906 50.1154 32.6514 50.4087 32.4765C50.6365 32.3428 50.8853 32.2759 51.1734 32.2759C51.2363 32.2759 51.3017 32.2785 51.3698 32.2862C51.7679 32.3248 52.0429 32.474 52.2288 32.7543C52.4829 33.1349 52.6688 33.6337 52.784 34.2432C52.8993 34.8604 52.9595 35.5753 52.9647 36.3622C52.9647 36.0665 52.9647 35.7707 52.9674 35.4801C52.9674 34.6289 52.9071 33.8652 52.784 33.2069C52.6688 32.6 52.4829 32.0985 52.2288 31.7179C52.0429 31.4376 51.7679 31.2885 51.3698 31.2499C51.3043 31.2422 51.2389 31.2396 51.1734 31.2396C50.8853 31.2396 50.6339 31.3039 50.4087 31.4402C50.1154 31.6151 49.8928 31.8542 49.7252 32.1834C49.4423 32.7208 49.2302 33.4614 49.1019 34.3872C48.9683 35.3336 48.9185 36.3879 48.9447 37.5194C48.9604 36.7788 49.0102 36.0742 49.1019 35.4261V35.4236Z" fill="white"/>
<path d="M125.801 35.5059C126.105 35.9893 126.619 36.2542 127.247 36.2542C127.273 36.2542 127.302 36.2542 127.328 36.2542C127.941 36.2336 128.575 35.871 129.269 35.1484C130.013 34.3846 130.432 33.6749 130.542 32.9831C130.599 32.6205 130.594 32.294 130.529 32.0059C130.403 32.6771 129.992 33.3663 129.269 34.1095C128.575 34.8347 127.941 35.1947 127.328 35.2153C127.299 35.2153 127.273 35.2153 127.247 35.2153C126.621 35.2153 126.108 34.9504 125.801 34.4669C125.673 34.2638 125.587 34.0375 125.537 33.7855C125.532 33.8189 125.524 33.8523 125.519 33.8858C125.435 34.5312 125.529 35.0764 125.799 35.5059H125.801Z" fill="white"/>
<path d="M123.95 41.5054C124.136 41.4256 124.311 41.3819 124.455 41.3819C124.502 41.3819 124.547 41.3871 124.589 41.3974C124.806 41.4488 124.997 41.5414 125.173 41.6828C125.385 41.8525 125.584 42.0634 125.767 42.3077C125.995 42.6137 126.234 42.9069 126.472 43.1795C127.069 43.8738 127.7 44.2492 128.342 44.2904C128.397 44.293 128.454 44.2955 128.509 44.2955C129.07 44.2955 129.594 44.1078 130.068 43.7375C130.529 43.3775 130.924 42.8657 131.241 42.2203C131.537 41.6185 131.759 40.9602 131.896 40.2684C132.032 39.5792 132.079 38.8798 132.032 38.1932C132.008 38.5403 131.964 38.8875 131.896 39.2321C131.757 39.9238 131.537 40.5822 131.241 41.1839C130.921 41.832 130.526 42.3411 130.068 42.7012C129.596 43.0715 129.072 43.2592 128.509 43.2592C128.454 43.2592 128.397 43.2592 128.342 43.254C127.7 43.2103 127.069 42.8349 126.472 42.1431C126.234 41.8705 125.995 41.5774 125.767 41.2714C125.584 41.0271 125.385 40.8162 125.173 40.6465C124.997 40.505 124.806 40.4124 124.589 40.361C124.547 40.3507 124.502 40.3456 124.455 40.3456C124.311 40.3456 124.136 40.3893 123.95 40.469C123.492 40.6773 123.371 40.9242 123.321 41.0939C123.217 41.4488 123.209 41.8191 123.3 42.228C123.308 42.1971 123.313 42.1637 123.321 42.1328C123.371 41.9631 123.492 41.7162 123.95 41.5079V41.5054Z" fill="white"/>
<path d="M106.288 29.01C106.312 28.8737 106.341 28.7477 106.382 28.6397C106.487 28.3723 106.618 28.1666 106.773 28.0328C106.909 27.9145 107.053 27.8451 107.207 27.8245C107.255 27.8168 107.302 27.8143 107.346 27.8143C107.456 27.8143 107.561 27.8348 107.66 27.876C107.807 27.9377 107.935 28.0328 108.045 28.1717C108.077 28.2128 108.103 28.2566 108.127 28.3054C108.203 28.1023 108.237 27.8785 108.216 27.6188C108.2 27.4131 108.142 27.2536 108.045 27.1328C107.935 26.9939 107.81 26.8988 107.66 26.837C107.561 26.7959 107.459 26.7753 107.346 26.7753C107.302 26.7753 107.255 26.7779 107.207 26.7856C107.053 26.8062 106.911 26.8756 106.773 26.9939C106.618 27.1276 106.487 27.3308 106.382 27.6008C106.272 27.8837 106.228 28.272 106.254 28.758C106.259 28.8583 106.272 28.938 106.291 29.01H106.288Z" fill="white"/>
<path d="M59.7424 33.1991C59.7084 33.1889 59.6796 33.1837 59.6508 33.1837C59.6167 33.1837 59.5827 33.1914 59.5434 33.2069C59.4282 33.2532 59.3889 33.3072 59.3732 33.338C59.0641 33.9475 58.8127 34.7112 58.6242 35.6087C58.4251 36.5576 58.2444 37.5503 58.0899 38.5558C57.9328 39.569 57.7704 40.5847 57.6054 41.5722C57.4352 42.5854 57.21 43.4752 56.9376 44.2055C56.7019 44.8613 56.4662 45.2933 56.2017 45.571C55.9084 45.8771 55.5862 46.0314 55.2405 46.0314C55.1332 46.0314 55.0284 46.0159 54.9289 45.9851C54.557 45.8771 54.2558 45.5942 54.0044 45.1236C53.8263 44.7893 53.6692 44.3933 53.5304 43.9227C53.2633 43.0689 53.0957 42.1277 53.0328 41.1273C52.9804 40.3019 52.9595 39.4635 52.9569 38.6303C52.9569 38.8463 52.9569 39.0598 52.9542 39.2784C52.9464 40.2401 52.9726 41.2122 53.0328 42.1663C53.093 43.1203 53.2633 44.1078 53.5304 44.9616C53.6718 45.4322 53.8263 45.8282 54.0044 46.1625C54.2532 46.6331 54.557 46.916 54.9289 47.024C55.0284 47.0548 55.1358 47.0703 55.2405 47.0703C55.5862 47.0703 55.911 46.916 56.2017 46.61C56.4662 46.3322 56.6993 45.9002 56.9376 45.2444C57.21 44.5141 57.4352 43.6243 57.6054 42.6111C57.7704 41.6237 57.9328 40.6105 58.0899 39.5947C58.2444 38.5892 58.4251 37.5966 58.6242 36.6476C58.8127 35.7527 59.0641 34.989 59.3732 34.3769C59.3889 34.3461 59.4308 34.2946 59.5434 34.2458C59.5827 34.2304 59.6167 34.2226 59.6508 34.2226C59.6796 34.2226 59.7084 34.2278 59.7424 34.2381C59.7948 34.2612 59.8289 34.2921 59.855 34.3409C59.8812 34.0966 59.91 33.8523 59.9336 33.6106C59.9415 33.518 59.9205 33.4254 59.8681 33.3226C59.8367 33.2609 59.8027 33.2274 59.7398 33.1991H59.7424Z" fill="white"/>
<path d="M101.05 31.8465C100.775 31.1393 100.458 30.4347 100.105 29.7481C99.7565 29.0718 99.3663 28.434 98.9368 27.8503C98.5361 27.3051 98.1197 26.8885 97.6954 26.6056C97.554 26.5105 97.4309 26.4642 97.3236 26.4642C97.3078 26.4642 97.2895 26.4642 97.2738 26.4667C97.1114 26.4899 96.9805 26.549 96.86 26.657C96.7395 26.765 96.6557 26.9065 96.606 27.0916C96.5615 27.2536 96.5745 27.4182 96.6479 27.6034C96.6688 27.6445 96.6924 27.678 96.7134 27.7062C96.7343 27.732 96.7526 27.7628 96.7736 27.7911C96.7998 27.7577 96.8312 27.7242 96.8626 27.696C96.9831 27.5905 97.114 27.5288 97.2764 27.5057C97.2921 27.5057 97.3078 27.5031 97.3262 27.5031C97.4309 27.5031 97.5566 27.5519 97.6981 27.6445C98.1223 27.9274 98.5387 28.344 98.9394 28.8892C99.3663 29.4729 99.7591 30.1107 100.107 30.787C100.458 31.4736 100.778 32.1782 101.053 32.8854C101.328 33.59 101.543 34.2175 101.692 34.7498C101.988 35.7862 102.155 36.7762 102.205 37.7123C102.271 36.4831 102.1 35.1407 101.692 33.7109C101.54 33.1786 101.325 32.5511 101.053 31.8465H101.05Z" fill="white"/>
<path d="M120.396 37.4885C120.302 36.6528 120.155 35.8119 119.962 34.9941C119.773 34.1944 119.529 33.4563 119.239 32.798C118.99 32.2348 118.668 31.8285 118.285 31.5893C118.079 31.4608 117.845 31.399 117.568 31.399C117.387 31.399 117.185 31.4273 116.973 31.4813C116.546 31.5893 115.792 31.9365 114.632 32.9831L114.129 33.4357L113.639 32.9677C113.469 32.8031 113.323 32.6385 113.202 32.474C113.142 32.3917 113.079 32.3222 113.016 32.2682C113.003 32.2579 112.98 32.2425 112.932 32.2297C112.932 32.2297 112.922 32.2297 112.898 32.2297C112.859 32.2297 112.786 32.2348 112.673 32.2631L112.65 32.2682C112.534 32.2914 112.506 32.33 112.479 32.384C112.38 32.5794 112.32 32.7697 112.296 32.96C112.241 33.4486 112.157 34.0246 112.05 34.6675C111.942 35.3001 111.832 35.9456 111.717 36.6065C111.605 37.2623 111.508 37.8897 111.427 38.4735C111.351 39.0341 111.319 39.5098 111.332 39.8878C111.335 39.9676 111.345 40.0421 111.361 40.1141C111.377 39.9264 111.398 39.7284 111.427 39.5124C111.505 38.9286 111.602 38.3012 111.717 37.6454C111.832 36.9871 111.942 36.3391 112.05 35.7064C112.16 35.061 112.241 34.4875 112.296 33.9989C112.32 33.8086 112.38 33.6157 112.479 33.4229C112.506 33.3689 112.534 33.3303 112.65 33.3072L112.673 33.302C112.788 33.2763 112.859 33.2686 112.898 33.2686C112.922 33.2686 112.932 33.2686 112.932 33.2686C112.982 33.2789 113.003 33.2943 113.016 33.3072C113.082 33.3612 113.145 33.4306 113.202 33.5129C113.323 33.6775 113.469 33.842 113.639 34.0066L114.129 34.4747L114.632 34.0221C115.792 32.9754 116.546 32.6283 116.973 32.5202C117.188 32.4662 117.387 32.438 117.568 32.438C117.843 32.438 118.079 32.4997 118.285 32.6283C118.668 32.8674 118.99 33.2737 119.239 33.8369C119.529 34.4952 119.773 35.2333 119.962 36.033C120.155 36.8508 120.299 37.6917 120.396 38.5275C120.477 39.2398 120.548 39.8801 120.614 40.4587C120.614 40.4562 120.614 40.4536 120.616 40.451C120.676 40.2556 120.69 40.0498 120.656 39.803C120.582 39.1318 120.496 38.3603 120.396 37.4885Z" fill="white"/>
<path d="M84.9519 40.2761C84.8576 39.4378 84.711 38.5995 84.5172 37.7817C84.3286 36.9794 84.0851 36.2413 83.7944 35.5856C83.5456 35.0224 83.2234 34.6161 82.8411 34.3769C82.6342 34.2484 82.4011 34.1866 82.1235 34.1866C81.9428 34.1866 81.7411 34.2149 81.529 34.2689C81.1021 34.3769 80.3479 34.7241 79.1877 35.7707L78.6849 36.2233L78.1951 35.7553C78.0249 35.5907 77.8756 35.4261 77.7578 35.2616C77.6976 35.1793 77.6347 35.1098 77.5719 35.0558C77.5588 35.0455 77.5352 35.0301 77.488 35.0173C77.488 35.0173 77.4776 35.0173 77.454 35.0173C77.4147 35.0173 77.3414 35.0224 77.2288 35.0507L77.2052 35.0558C77.09 35.079 77.0612 35.1175 77.035 35.1716C76.9355 35.367 76.8752 35.5573 76.8517 35.7502C76.7967 36.2388 76.7129 36.8148 76.6055 37.4577C76.4981 38.0903 76.3881 38.7358 76.2729 39.3967C76.1603 40.055 76.0607 40.6825 75.9822 41.2636C75.9062 41.8242 75.8748 42.3 75.8879 42.678C75.8905 42.7577 75.901 42.8323 75.9167 42.9043C75.9324 42.7166 75.9534 42.5186 75.9822 42.3026C76.0607 41.7214 76.1576 41.0913 76.2729 40.4356C76.3881 39.7773 76.4981 39.1292 76.6055 38.4966C76.7155 37.8537 76.7967 37.2803 76.8517 36.7891C76.8752 36.5962 76.9355 36.4059 77.035 36.2105C77.0612 36.1565 77.09 36.1179 77.2052 36.0948L77.2288 36.0896C77.344 36.0639 77.4147 36.0562 77.454 36.0562C77.4776 36.0562 77.488 36.0562 77.488 36.0562C77.5378 36.0665 77.5588 36.0819 77.5719 36.0948C77.6373 36.1488 77.7002 36.2182 77.7578 36.3005C77.8783 36.4651 78.0249 36.6322 78.1951 36.7942L78.6849 37.2622L79.1877 36.8097C80.3479 35.7656 81.1021 35.4159 81.529 35.3078C81.7438 35.2538 81.9428 35.2256 82.1235 35.2256C82.4011 35.2256 82.6342 35.2873 82.8411 35.4159C83.2234 35.655 83.5456 36.0613 83.7944 36.6245C84.0851 37.2803 84.326 38.0209 84.5172 38.8206C84.711 39.6384 84.855 40.4767 84.9519 41.3151C85.0331 42.0274 85.1038 42.6677 85.1693 43.2463C85.1693 43.2438 85.1719 43.2412 85.1719 43.2386C85.2295 43.0432 85.2452 42.8374 85.2112 42.5906C85.1379 41.9194 85.0514 41.1479 84.9519 40.2761Z" fill="white"/>
<path d="M108.04 41.8011L107.579 41.6262C107.582 41.8062 107.582 41.9863 107.579 42.1637L107.569 42.66L108.04 42.84C108.407 42.9789 108.603 43.1203 108.711 43.236C108.836 43.0715 108.904 42.9095 108.923 42.7372C108.939 42.5983 108.891 42.4466 108.779 42.282C108.698 42.1611 108.504 41.9785 108.04 41.8037V41.8011Z" fill="white"/>
<path d="M72.198 42.5674C72.1169 42.5443 72.0226 42.5314 71.9204 42.5314C71.6874 42.5314 71.4071 42.5931 71.0719 42.7192C70.5324 42.9069 69.972 43.1203 69.4089 43.3492C68.783 43.6038 68.2042 43.7889 67.6909 43.8969C67.4159 43.9561 67.1567 43.9844 66.9184 43.9844C66.6224 43.9844 66.35 43.9381 66.1065 43.8506C65.8289 43.7504 65.4099 43.4906 65.2553 42.8477L65.2056 42.876L65.1951 43.2643C65.1663 44.3753 65.7529 44.7584 66.1039 44.8896C66.3474 44.9796 66.6198 45.0233 66.9157 45.0233C67.154 45.0233 67.4133 44.9924 67.6883 44.9359C68.2016 44.8279 68.7804 44.6427 69.4063 44.3881C69.9694 44.1592 70.5298 43.9484 71.0693 43.7581C71.4045 43.6321 71.6847 43.5703 71.9178 43.5703C72.02 43.5703 72.1142 43.5832 72.1954 43.6063C72.329 43.6449 72.4207 43.6886 72.4888 43.7324C72.5647 43.6243 72.6249 43.5163 72.6564 43.4109C72.7611 43.0689 72.6773 42.912 72.6485 42.8632C72.6223 42.8143 72.5437 42.6677 72.1954 42.57L72.198 42.5674Z" fill="white"/>
<path d="M72.046 34.4927C71.6793 34.1404 71.145 33.9218 70.4694 33.8446C70.2441 33.8215 70.0189 33.8086 69.7989 33.8086C69.249 33.8086 68.7042 33.8858 68.1805 34.0375C67.4288 34.2535 66.727 34.5827 66.0958 35.0121C65.4516 35.4519 64.8649 35.9816 64.3464 36.5859C63.8252 37.198 63.3879 37.8563 63.0448 38.5429C62.707 39.2244 62.4686 39.9264 62.3403 40.631C62.2408 41.1659 62.2198 41.6828 62.267 42.1791C62.2827 42.012 62.3063 41.8422 62.3403 41.6699C62.4713 40.9653 62.707 40.2607 63.0448 39.5818C63.3852 38.8952 63.8226 38.2343 64.3464 37.6248C64.8649 37.018 65.4542 36.4882 66.0958 36.051C66.727 35.619 67.4288 35.2924 68.1805 35.0764C68.7042 34.9247 69.249 34.8475 69.7989 34.8475C70.0189 34.8475 70.2441 34.8604 70.4694 34.8835C71.145 34.9607 71.6767 35.1793 72.046 35.5316C72.4388 35.9096 72.6928 36.3365 72.8238 36.8405C72.8473 36.9331 72.863 37.0257 72.8761 37.1208C72.9468 36.6579 72.9311 36.2233 72.8238 35.8016C72.6928 35.2976 72.4388 34.8681 72.046 34.4927Z" fill="white"/>
<path d="M66.3394 40.973C66.6013 41.0476 66.8763 41.0862 67.1591 41.0862C67.4419 41.0862 67.7431 41.0476 68.0495 40.9705C68.6152 40.829 69.1442 40.5925 69.6235 40.2633C70.108 39.929 70.5113 39.515 70.8177 39.0289C71.1555 38.494 71.3022 37.9231 71.2551 37.3343L71.2236 36.9614C71.1608 37.3163 71.0246 37.6608 70.8177 37.99C70.5113 38.476 70.108 38.8901 69.6235 39.2244C69.1468 39.551 68.6178 39.7901 68.0495 39.9316C67.7431 40.0087 67.4446 40.0473 67.1591 40.0473C66.8736 40.0473 66.6013 40.0087 66.3394 39.9341L65.957 39.8235C65.923 39.9007 65.8889 39.9804 65.8627 40.0576L65.6113 40.7622L66.342 40.973H66.3394Z" fill="white"/>
</g>
<defs>
<clipPath id="clip0_25_119">
<rect width="181" height="52" fill="white"/>
</clipPath>
</defs>
</svg>
