<?xml version="1.0" encoding="utf-8"?>
<!-- Generator: Adobe Illustrator 27.9.1, SVG Export Plug-In . SVG Version: 6.00 Build 0)  -->
<svg version="1.1" id="Layer_1" xmlns="http://www.w3.org/2000/svg" xmlns:xlink="http://www.w3.org/1999/xlink" x="0px" y="0px"
	 viewBox="0 0 250 250" style="enable-background:new 0 0 250 250;" xml:space="preserve">
<style type="text/css">
	.st0{fill:#FCCA1D;}
	.st1{fill:#232121;}
	.st2{fill:#D1CDC5;}
	.st3{fill:#8E1830;}
	.st4{fill:#FDFDFD;}
	.st5{fill:#FFDE83;}
	.st6{fill:#7F3211;}
	.st7{fill:#FCFCFC;}
	.st8{fill:#B21F36;}
	.st9{fill:#D6D5D5;}
	.st10{fill:#FCCD2A;}
	.st11{fill:#FDCF23;}
	.st12{fill:#FB751E;}
	.st13{fill:#6C2009;}
	.st14{fill:#F9F9F9;}
	.st15{fill:#4F1304;}
	.st16{fill:#F3F3F3;}
	.st17{fill:#A33F1F;}
	.st18{fill:#D6D5D2;}
	.st19{fill:#FAFAFA;}
	.st20{fill:#FDDE23;}
	.st21{fill:#FDD42C;}
	.st22{fill:#E3E2E5;}
	.st23{fill:#BDBEC9;}
	.st24{fill:#DD8C93;}
	.st25{fill:#F89043;}
	.st26{fill:#FFFFFF;}
	.st27{fill:#BDBEC0;}
	.st28{fill:#E2E3E4;}
	.st29{fill:#BABBBD;}
	.st30{fill:#F16866;}
	.st31{fill:#D1D8EA;}
	.st32{fill:#E5E6E7;}
	.st33{fill:#FDC91C;}
	.st34{fill:#F9C829;}
	.st35{fill:#CFD6DE;}
	.st36{fill:#606060;}
	.st37{fill:#3C444E;}
	.st38{fill:#BC4633;}
	.st39{fill:#4FB8E8;}
	.st40{fill:#F0F0F0;}
	.st41{fill:#FBFBFB;}
	.st42{fill:#B5EAF7;}
	.st43{fill:#CBECF5;}
	.st44{fill:#D3F6FC;}
	.st45{fill:#FDFCFC;}
	.st46{fill:#FDD228;}
	.st47{fill:#6B230A;}
	.st48{fill:#5C1C07;}
	.st49{fill:#AA4B2C;}
	.st50{fill:#C9C6BE;}
	.st51{fill:#DFDFDF;}
	.st52{fill:#9C9689;}
	.st53{fill:#FC771B;}
	.st54{fill:#FDE43B;}
	.st55{fill:#E6E6E6;}
</style>
<g>
	<g>
		<g>
			<path class="st21" d="M202.8,60.4c-3.1-0.4-5.7-1.2-8.4-1.8c-8.4-1.9-16.8-3.9-25.2-5.6c-4.8-1-9.7-0.6-14.3,1.5
				c-5.3,2.4-8.7,6.7-10.7,12.1c-1.9,5.4-3.8,10.9-5.1,16.5c-0.9,3.7-3,6.9-3.9,10.7c-0.7-0.5-0.8-1.2-1.1-1.9
				c-1.7-4.9-3.3-9.8-5-14.6c-2.7-7.9-9.6-12.9-17.4-12.6c-3.6,0.1-7,1.4-10.5,2.4C78,74.2,54.6,81.3,31.2,88.4
				c-1.5,0.5-3,0.9-4.5,1.3c-1.2,0.4-1.7,0.2-1.3-1.2c1.3-4.4,2.7-8.7,4.6-12.9c6-13.8,14.6-25.7,26-35.5
				c14.7-12.6,31.6-20.4,50.8-23.1c18.6-2.6,36.5-0.2,53.5,7.4c15.1,6.7,27.6,16.7,37.8,29.6C199.8,56.1,201.3,58,202.8,60.4z"/>
			<path class="st1" d="M163.2,68.3c3.2-1,6.3-0.3,9.4,0.5c0.9,0.3,1.2,1.2,1.2,2.1c-0.1,4.1,2,6.7,6,7.6c9.9,2.3,19.8,4.6,29.7,7
				c1.9,0.4,3.7,1.1,5.7,1.1c3.3,0.1,5.4-1.3,6.5-4.4c0.4-1.2,1.4-1.4,2.2-1.2c4.5,0.8,8.9,1.9,12.1,5.4c2.8,3.1,3.3,6.8,2.3,10.7
				c-3.9,15.2-7.7,30.3-11.7,45.5c-3.8,14.8-7.8,29.6-11.7,44.4c-0.1,0.4-0.3,0.8-0.4,1.2c-1.5-0.2-1.9-1.7-3-2.4
				c0.2-0.9,0.4-1.8,0.6-2.6c0.1-0.2,0.2-0.4,0.3-0.6c2.6-10,5.2-20,7.7-30c1.7-6.5,3.3-13.1,4.9-19.7c1.1-2.9,1.6-6,2.4-9
				c1.5-5.6,2.9-11.1,4.2-16.7c0.4-1.5,0.8-3.1,1.2-4.6c0.5-2-0.4-3.4-2.4-3.9c-8.9-1.9-17.8-3.9-26.7-5.9
				c-11.6-2.6-23.2-5.2-34.9-7.8c-3.5-0.9-7-1.8-10.5-2.6c-0.9-0.2-1.8,0.1-2.4,1c-0.3,0.1-0.5,0.4-0.6,0.8c-1.5,4.7-3,9.4-4.3,14.2
				c-4.5,16.9-9.3,33.8-13.9,50.7c-1.7,6.3-3.5,12.6-4.9,19c-0.7,3,0.1,4.2,3,4.9c2.4,0.6,4.8,1.3,7.2,1.9
				c17.1,4.6,34.4,8.6,51.5,13.5c3.8,1.1,7.8,1.9,11.7,2.9c1.7,0.4,3.1,0.4,4.5-0.8c0,0.6,0,1.2-0.2,1.8
				c-2.4,8.5-9.6,26.3-16.8,31.6c-6.3,4.7-13.5,6.9-21.4,6.8c-0.7,0-1.5,0.1-1.4-1c0.1-1.5-0.8-2-2-2.3c-4.8-1.2-9.5-2.6-14.3-3.8
				c-2.2-0.6-4.4-1.2-6.7-1.5c-1.2-0.1-1.8,0.6-2,1.6c-0.2,1,0.6,1.5,1.4,1.7c4,1.1,7.9,2.2,11.9,3.1c2.4,0.5,4.8,1.1,7,2.1
				c-1.8,0-3.6,0-5.3-0.3c-5.8-1-11.6-1.7-17.3-3c-0.5-0.1-0.9-0.2-0.9,0.5c-0.6,0-1.1-0.1-1.6-0.4c-0.3-1.2-0.9-1.4-1.8-0.4
				c-4.8-1.2-9.6-2.2-14.2-3.8c-5.3-1.8-8.6-6.1-7.3-12.1c1-4.8,5.3-19.9,6.6-24.7c5.5-20,11-40,16.6-60c4.4-15.9,9-31.8,13.5-47.7
				c1-3.3,2.2-6.5,5.3-8.6c0.6-0.4,1.2-1,2-1c0.1,0.8-0.5,1-0.9,1.4c-1,1-2.1,1.8-2.3,3.3c0,0.4-0.2,0.8,0.2,1
				c0.4,0.2,0.7-0.2,0.9-0.5c1.4-2.9,4.2-3.4,7-3.9c0.5-0.1,1.2,0.1,1.2-0.5c0-0.6-0.8-0.7-1.3-0.8C165,69,164,69.1,163.2,68.3z
				 M188.6,218.6c0,1,0.5,1.6,1.5,1.5c1,0,1.7-0.6,1.7-1.6c-0.1-1-0.8-1.4-1.9-1.4C188.9,217.1,188.5,217.6,188.6,218.6z
				 M153.1,188.8c1.1,0,1.9-0.3,1.8-1.3c0-0.9-0.7-1.6-1.6-1.6c-1,0-1.6,0.7-1.7,1.6C151.7,188.4,152.4,188.8,153.1,188.8z
				 M202.2,197.1c1,0,1.7-0.4,1.6-1.4c-0.1-0.9-0.7-1.5-1.6-1.5c-0.9,0-1.5,0.7-1.6,1.5C200.6,196.7,201.3,197.1,202.2,197.1z"/>
			<path class="st1" d="M135.4,108.3c1.6-5.9,3.2-11.4,4.7-16.9c0.6-2.2,1.6-3.1,3-2.7c1.8,0.6,2.4,1.9,1.7,4.2
				c-5.2,18-10.4,36-15.5,54c-3.8,13.3-7.3,26.6-11,40c-1.4,4.9-5.7,20.3-6.9,25.3c-1.4,5.7,0.5,10.6,5.3,14.1
				c2,1.4,4.2,2.2,6.5,2.8c14.9,3.8,29.9,7.6,44.8,11.4c6.9,1.8,13.8,3.5,20.7,5c4.9,1,9.6,0.8,13.9-2.2c2.8-1.9,4.2-4.8,5.1-7.9
				c1.6-5.4,3-10.8,4.4-16.3c6.5-25.1,15.7-60.7,22.2-85.8c3.1-12.1,6.2-24.2,9.4-36.3c2.5-9.3-1.1-15-9.9-18.6
				c-3.8-1.5-7.9-1.9-11.9-2.8c-15.5-3.5-30.9-7-46.4-10.6c-2.6-0.6-5.3-1.2-7.9-1.8c-5.8-1.3-11.8,0.8-14.5,5.1
				c-0.8,1.2-1.3,2.5-1.7,3.9c-1.2,3.9-2.4,7.8-3.7,11.7c-0.6,1.9-1.5,2.6-2.9,2.2c-1.6-0.5-2.1-1.7-1.5-3.5c1.3-4.1,2.7-8.2,4-12.3
				c2.7-8.8,9.1-13,18.3-11.6c6.7,1,13.3,2.9,20,4.3c13.4,3,26.9,5.9,40.3,8.9c4.3,1,8.8,1.6,12.8,3.6c3.4,1.7,6.3,3.8,8.5,6.9
				c3.2,4.6,3,9.5,1.7,14.6c-1.7,6.7-3.5,13.4-5.3,20.1c-0.2,0.8-0.2,1.4,0.5,2.1c0.9,1,1.2,2.2,0.8,3.5c-1.1,4-2.1,8.1-3.2,12.1
				c-0.4,1.3-1.2,2.5-2.5,2.9c-0.9,0.3-1.2,0.8-1.4,1.6c-4.9,19-9.7,38.1-14.6,57.1c-2.2,8.7-7.3,28-9.6,36.7
				c-1.1,4.2-2.3,8.3-5.5,11.5c-5.1,5.2-11.5,6.3-18.3,5.2c-7-1.2-13.8-3.3-20.7-5c-15.8-3.9-31.6-8-47.4-12
				c-2.9-0.8-5.8-1.8-8.2-3.7c-6.4-4.9-8.5-11.2-6.4-19c3.1-11.6,9.1-33.6,12.3-45.2c0.1-0.5,0.6-1.1,0.1-1.5
				c-0.3-0.2-0.9,0.1-1.4,0.2c-12.6,4.3-25.1,8.8-37.8,13c-13.8,4.6-27.4,9.7-41.4,13.8c-8.8,2.6-16-0.7-19.5-9.2
				c-3.5-8.7-6.2-17.8-9.3-26.7c-3.7-10.8-7.4-21.6-11-32.4c-1.2-3.7-2.1-7.6-1.2-11.5c1-4.8,3.9-8,8.6-9.4
				c29.3-8.9,58.6-17.7,87.9-26.6c5-1.5,10.1-2.9,15-4.5c8.6-2.8,13.9,1.6,16.3,8.7c3,9.1,6,18.2,8.9,27.3
				C134.9,106.9,135.1,107.4,135.4,108.3z M125.5,91.6c-0.3-1.5-0.8-2.9-1.4-4.3c-0.5-1.5-1-2.9-1.5-4.4c-0.4-1.3-0.8-2.6-1.2-3.9
				c-2-4.6-5.3-6.5-9.6-5.5c-2.3,0.6-4.6,1.4-6.9,2.2c-1.6,0.4-3.2,0.8-4.8,1.3c-4.4,1.3-8.7,2.6-13.1,4c-8.1,2.5-16.3,5-24.4,7.5
				c-0.4,0.1-0.8,0.1-1.1,0.2c-6.7,2.1-13.5,4.1-20.2,6.2C36.2,96.4,31.1,98,26,99.6c-6,1.8-12,3.6-18,5.4c-4.2,1.3-6.4,4.3-6.4,8.7
				c0,3.8,1.3,7.4,2.5,10.9c3.8,11.2,7.5,22.4,11.4,33.6c1.3,3.6,2.2,7.3,4,10.8c0,0.7,0.3,1.4,0.7,2c1.2,4.9,2.6,9.8,6,13.7
				c1.7,2,4.1,2.9,6.8,2.8c3.6-0.1,6.9-1.1,10.3-2.2c10.8-3.6,21.6-7.3,32.3-11c5.2-1.8,10.5-3.7,15.7-5.6c0.3,0,0.6,0,0.8-0.1
				c9.5-3.3,19-6.6,28.4-9.9c0.7-0.2,0.9-0.7,1.1-1.3c0.5-1.2,0.3-2.6,0.9-3.7c1.7-5.8,3.3-11.7,5-17.5c0.2-0.7,0.5-1.3,0.4-2
				c1.7-6,3.4-11.9,5.2-17.9c0.1-0.3,0.1-0.8,0-1.1c-1.6-4.8-2.7-9.7-4.6-14.5c-0.5-1.5-0.9-3.1-1.4-4.6
				C126.5,94.6,126,93.1,125.5,91.6z"/>
			<path class="st1" d="M142.3,227.8c0-0.6,0.4-0.6,0.9-0.5c5.7,1.3,11.5,2,17.3,3c1.7,0.3,3.5,0.3,5.3,0.3c-2.3-1-4.7-1.6-7-2.1
				c-4-0.9-8-2-11.9-3.1c-0.8-0.2-1.6-0.7-1.4-1.7c0.2-1,0.8-1.7,2-1.6c2.3,0.2,4.5,0.9,6.7,1.5c4.8,1.2,9.5,2.6,14.3,3.8
				c1.2,0.3,2.2,0.8,2,2.3c-0.1,1.1,0.7,1,1.4,1c7.9,0.1,15-2.2,21.4-6.8c7.2-5.3,14.4-23.1,16.8-31.6c0.2-0.6,0.2-1.2,0.2-1.8
				c0.5-1.6,0.9-3.1,1.4-4.7c1.1,0.7,1.6,2.1,3,2.4c-1.2,4.6-5,19.7-6.4,24.3c-1.2,4-2.1,8.1-3.1,12.2c-0.6,2.6-1.3,5.1-2.4,7.5
				c-2.7,6.1-7.2,8.6-13.8,7.5c-3.5-0.6-6.9-1.5-10.3-2.4c-11.1-2.9-22.2-5.8-33.4-8.7c-0.3-0.3-0.5-0.7-1-0.3
				c-0.2-0.1-0.4-0.1-0.7-0.2c-0.2-0.4-0.5-0.4-0.9-0.2C142.6,227.8,142.4,227.8,142.3,227.8z"/>
			<path class="st1" d="M213.4,44.1c11.5,0.1,21.3,4.6,29.2,13.4c1.3,1.5,2.5,3.1,3.5,4.8c0.9,1.5,0.8,2.7-0.3,3.3
				c-1.1,0.6-2.2,0.1-3.1-1.3c-7.1-11.1-17.2-16.6-30.4-16.5c-0.8,0-1.5,0.2-2.3,0.2c-1.1,0.1-2-0.2-2.3-1.5c-0.2-1.3,0.7-1.7,1.7-2
				c0.2-0.1,0.4-0.1,0.6-0.1C211,44.2,212.1,44.2,213.4,44.1z"/>
			<path class="st1" d="M214,52.9c9.3,0.2,16.7,4,22.3,11.1c0.4,0.5,0.7,1.1,1,1.7c0.5,1,0.4,2-0.7,2.6c-1,0.6-2,0.3-2.6-0.6
				c-0.9-1.4-1.9-2.7-3-3.9c-5-5.1-11.1-7.5-18.3-7.2c-0.5,0-1,0.1-1.5,0.1c-1-0.1-1.7-0.6-1.8-1.6c-0.1-1,0.6-1.7,1.5-1.9
				C212,52.9,213.1,52.9,214,52.9z"/>
			<path class="st1" d="M207,80.5c-2.2-0.5-4.2-1-6.3-1.5c-4.5-1.1-9.1-2.2-13.6-3.2c-0.9-0.2-1.7-0.6-1.8-1.7
				c-0.1-0.8,0.4-1.3,1.1-1.7c0.5-0.2,1-0.1,1.5,0c6.5,1.4,12.9,3.2,19.4,4.5c1.1,0.2,1.6,0.9,1.5,2C208.7,80,208,80.4,207,80.5z"/>
			<path class="st1" d="M215.3,61.6c4.8,0.3,8.6,2,11.8,5.3c0.9,0.9,1,2,0,2.9c-1,0.9-2.1,0.7-2.9-0.3c-2.8-3.4-6.5-4.5-10.7-4.2
				c-1.2,0.1-2.2-0.2-2.3-1.5c-0.1-1.4,0.8-1.9,2.1-2c0.1,0,0.1,0,0.2,0C214.1,61.7,214.9,61.6,215.3,61.6z"/>
			<path class="st1" d="M163.2,68.3c0.8,0.8,1.8,0.7,2.8,0.8c0.5,0.1,1.3,0.2,1.3,0.8c0,0.7-0.7,0.4-1.2,0.5c-2.8,0.5-5.6,1-7,3.9
				c-0.2,0.3-0.4,0.7-0.9,0.5c-0.4-0.2-0.3-0.7-0.2-1c0.2-1.5,1.4-2.3,2.3-3.3c0.4-0.4,1.1-0.6,0.9-1.4
				C161.8,68.6,162.5,68.4,163.2,68.3z"/>
			<path class="st1" d="M138.9,226.9c0.9-1,1.4-0.7,1.8,0.4C140,227.2,139.5,227.1,138.9,226.9z"/>
			<path class="st1" d="M144.3,228.3c0.5-0.5,0.7,0,1,0.3C144.9,228.6,144.6,228.5,144.3,228.3z"/>
			<path class="st1" d="M142.7,227.9c0.4-0.2,0.7-0.2,0.9,0.2C143.3,228.2,143,228.1,142.7,227.9z"/>
			<path class="st0" d="M168.9,84.9c11.6,2.6,23.2,5.2,34.9,7.8c8.9,2,17.8,3.9,26.7,5.9c2.1,0.4,3,1.8,2.4,3.9
				c-0.4,1.5-0.8,3.1-1.2,4.6c-1.2,0.3-1.4-1.2-2.3-1.3c0-1.2,0.6-2.3,0.8-3.5c0.3-1.5-0.2-2.5-1.7-2.8c-3.8-0.8-7.6-1.7-11.4-2.8
				c-1.4-0.4-2.6,0.4-2.9,1.5c-0.2,1.2,0.5,2.2,1.9,2.6c2.4,0.6,4.8,1.3,7.2,1.8c1.3,0.3,1.7,0.8,1.3,2.2c-0.7,2.2-1.1,4.4-1.7,6.5
				c-0.3,1.1-0.2,1.9,0.6,2.7c-1.3,2.3-2.9,4.5-2.4,7.4c0.2,1,0.5,1.9,0.3,2.9c-1.1,4,0.8,6.1,3.7,8.6c-1.6,6.6-3.3,13.1-4.9,19.7
				c-2.6,10-5.1,20-7.7,30c-0.1,0.2-0.2,0.4-0.3,0.6c-1,0.3-1.8-0.5-2.7-0.7c0.7-2.8,1.4-5.5,2.1-8.3c0.4-1.4-0.2-2.6-1.5-3
				c-1.3-0.4-2.6,0.3-3,1.8c-0.8,2.7-1.6,5.3-2.4,8.1c-0.3,1-0.7,1-1.4,0.6c-0.2-0.3-0.3-0.6-0.5-0.8c-5.4-5.5-10.7-10.9-15.2-17.2
				c-0.8-1.1-2-2.1-1.9-3.7c3.8-0.5,7.4-1.5,10.5-3.9c5.1-4,8.3-15,0-21.1c-3.8-2.8-8.1-4.6-12.3-6.7c-1.6-0.8-3.2-1.7-4.5-3
				c-1.9-1.9-1.4-4.3,1.1-5.3c1.1-0.4,2.2-0.6,3.4-0.4c5.3,0.7,9.7,3.1,13.6,6.6c1.2,1,2.1,1,3.1,0c1.6-1.5,3.1-2.9,4.8-4.3
				c1.5-1.3,1.6-1.7,0.1-2.9c-3.2-2.8-6.9-5-10.8-6.5c-0.9-0.3-1.3-0.7-0.9-1.7c0.4-1.2,0.7-2.4,1-3.7c0.3-1,0-1.6-1.1-1.8
				c-1.3-0.3-2.6-0.6-3.8-1c-1.5-0.5-2.3-0.1-2.7,1.4c-0.3,1.4-0.5,3.1-1.5,3.9c-1,0.9-2.8,0.2-4.3,0.2c-5.5-0.1-10.1,1.8-13.6,6.1
				c-4.3,5.4-3.7,13,1.5,17.5c2.3,2,5,3.2,7.6,4.5c3.1,1.5,6.4,2.8,9.2,4.8c1.3,0.9,2.5,2.1,2,4c-0.5,2-2,2.9-3.9,3.1
				c-3.4,0.3-6.6-0.3-9.5-2.1c0.1-0.7-0.3-1.2-0.6-1.8c-3.2-5.1-6.5-10.1-9.5-15.4c-4.2-7.5-8.1-15.2-10.9-23.4
				c-0.7-2.2-1.6-4.4-1.4-6.7c0.1-1.9,0.8-3.8,1.2-5.8c0.7,0,1.3,0,2,0c-0.1,0.7-0.2,1.4-0.3,2.1c-0.2,1.3,0.2,2.3,1.5,2.7
				c1.2,0.3,2.3-0.4,2.7-1.7c0.6-2.3,1.4-4.5,1.9-6.8c0.3-1.3,0.9-1.4,2-1.2c2.3,0.5,4.4,1.4,6.8,1.7c1.5,0.2,2.7-0.2,2.9-1.4
				c0.3-1.3-0.6-2.8-2.1-3c-1-0.1-1.9-0.3-2.8-0.7C168.1,85.7,168.5,85.3,168.9,84.9z"/>
			<path class="st0" d="M185.7,160c-0.1,1.6,1.1,2.6,1.9,3.7c4.5,6.3,9.8,11.7,15.2,17.2c0.2,0.2,0.3,0.5,0.5,0.8
				c-2.8-0.7-5.6-1.3-8.4-1.9c-1.3-0.3-2.4,0.1-2.8,1.4c-0.4,1.3,0.2,2.4,1.5,2.7c4,1,8,2.1,12,3c1.8,0.4,2.9-0.5,3.2-2.3
				c0.1-0.7,0.4-1.4,0.7-2c0.9,0.2,1.7,1,2.7,0.7c-0.2,0.9-0.4,1.8-0.6,2.6c-0.5,1.6-0.9,3.1-1.4,4.7c-1.4,1.1-2.8,1.2-4.5,0.8
				c-3.9-1-7.8-1.8-11.7-2.9c-17.1-4.8-34.4-8.9-51.5-13.5c-2.4-0.6-4.8-1.3-7.2-1.9c-2.9-0.7-3.7-1.9-3-4.9
				c1.4-6.4,3.2-12.7,4.9-19c4.6-16.9,9.4-33.8,13.9-50.7c1.3-4.8,2.8-9.5,4.3-14.2c0.1-0.3,0.2-0.6,0.6-0.8c0,0.8-0.1,1.6-0.3,2.4
				c-0.7,2.9-1.3,5.9-2,8.8c-0.4,1.9-1.1,3.8-1.2,5.8c-0.1,2.3,0.7,4.6,1.4,6.7c2.8,8.2,6.6,15.9,10.9,23.4c3,5.3,6.3,10.3,9.5,15.4
				c0.4,0.6,0.7,1.1,0.6,1.8c-3.1-1.5-5.7-3.5-7.9-6.1c-1-1.2-2-1.2-3.1-0.3c-1.3,1.1-2.7,2.1-4,3.2c-3.1,2.6-3.1,3.5,0.1,6.1
				c0.1,0.1,0.2,0.1,0.3,0.2c3.5,2.8,7.2,5.2,11.4,6.8c0.8,0.3,0.9,0.8,0.7,1.5c-0.4,1.3-0.6,2.6-1,3.8c-0.3,1.2,0.1,1.9,1.3,2.2
				c1.3,0.3,2.6,0.7,4,1.1c1.1,0.3,1.9,0,2.2-1.3c0.1-0.8,0.4-1.6,0.6-2.4c0.8-2.6,0.8-2.6,3.4-2.5C183.8,160,184.8,160,185.7,160z
				 M140.8,154.7c-0.8,0-1.6,0.5-1.9,1.5c-1,3.5-2.1,7.1-3,10.6c-0.4,1.6,0.2,2.7,1.6,3.1c3.6,0.9,7.1,1.8,10.7,2.7
				c1.4,0.4,2.6,0.1,3.1-1.4c0.4-1.2-0.4-2.3-2.1-2.8c-2.3-0.7-4.7-1.3-7-1.9c-1-0.2-1.2-0.6-0.9-1.6c0.7-2.4,1.4-4.9,2-7.3
				C143.6,156,142.6,154.7,140.8,154.7z"/>
			<path class="st0" d="M225.1,132.9c-2.9-2.5-4.8-4.6-3.7-8.6c0.3-1-0.1-1.9-0.3-2.9c-0.5-2.9,1.1-5.1,2.4-7.4
				c2.4,0.7,3.3,0.2,3.9-2.1c0.6-2,1.2-4.1,1.9-6.1c0.9,0.1,1.1,1.6,2.3,1.3c-1.3,5.6-2.7,11.2-4.2,16.7
				C226.7,126.9,226.2,130,225.1,132.9z"/>
			<path class="st0" d="M153.7,94.6c0.7-2.9,1.3-5.9,2-8.8c0.2-0.8,0.3-1.6,0.3-2.4c0.6-0.9,1.5-1.2,2.4-1c3.5,0.8,7,1.7,10.5,2.6
				c-0.4,0.4-0.8,0.7-0.7,1.4c-2.4-0.6-4.8-1.2-7.2-1.7c-1.9-0.4-2.6,0.1-3.1,1.9c-0.7,2.7-1.5,5.4-2.3,8.1
				C155,94.6,154.4,94.6,153.7,94.6z"/>
			<path class="st1" d="M188.6,218.6c-0.1-1,0.3-1.4,1.3-1.5c1.1-0.1,1.8,0.3,1.9,1.4c0.1,1-0.7,1.6-1.7,1.6
				C189.1,220.1,188.6,219.5,188.6,218.6z"/>
			<path class="st1" d="M153.1,188.8c-0.7,0-1.4-0.4-1.4-1.3c0-1,0.7-1.7,1.7-1.6c0.9,0,1.5,0.7,1.6,1.6
				C155,188.5,154.2,188.8,153.1,188.8z"/>
			<path class="st1" d="M202.2,197.1c-0.9,0-1.6-0.4-1.6-1.4c0.1-0.9,0.7-1.5,1.6-1.5c0.9,0,1.5,0.7,1.6,1.5
				C203.9,196.7,203.2,197.1,202.2,197.1z"/>
			<path class="st8" d="M26,99.6c5.1-1.6,10.3-3.2,15.4-4.8c6.7-2.1,13.5-4.1,20.2-6.2c0.4-0.1,0.8-0.1,1.1-0.2
				c-1.9,2.2-3.3,4.7-4.7,7.2c-0.2,0.4-0.5,0.8-0.2,1.2c0.4,0.5,0.8,0,1.2-0.1c3.1-1,6.3-2,9.4-2.9c4.8-1.5,9.6-3,14.4-4.4
				c1.9-0.5,3.7-1.9,5.8-0.8c-2.9,1.3-4.9,3.5-6.5,6.2c-3.7,0.7-7.1,2.2-10.7,3.2c-5.2,1.4-10.2,3.6-15.5,4.7c0-1.2,0.4-2.4,0.7-3.5
				c0.1-0.5,0.6-1.1,0.1-1.5c-0.4-0.4-0.9,0-1.4,0.1c-4.5,1.4-9,2.7-13.5,4.2c-4.9,1.6-3.9,0.5-4,5.5c-1.4,0.1-2.7,0.5-4,0.9
				c-4.9,1.7-9.9,3.5-14.9,5c-3.3,1-5.5,4.3-4.1,8c1.5,4,2.7,8.1,4.1,12.1c1.4,4.4,4,5.7,8.4,4.3c5.4-1.8,10.8-3.8,16.3-5.3
				c2.9-0.8,5-3.8,3.6-7.2c-1.2-3.1-2.1-6.4-3.1-9.5c0.8,0.4,1.6-0.1,2.3-0.3c2.3-0.7,4.6-1.3,6.9-2c-0.2,1-0.3,2-0.5,3.1
				c-0.3,1.5,0,1.9,1.5,1.4c7.3-2.2,14.6-4.4,21.9-6.6c2.6-0.8,5.2-1.7,7.9-2.1c1.4,1.2,2.9,2.4,4.6,3.3c-1,1-2.3,1.1-3.6,1.4
				c-2.9,0.9-5.9,1.8-8.8,2.7c-8.1,2.5-16.2,5-24.4,7.5c-0.7,0.2-1.1,0.5-1.3,1.3c-1,4.7-2.6,9.3-4.1,13.8c-0.6,1.8-1.7,3.5-1.8,5.4
				c-4.7,1.4-9.3,2.8-14,4.3c-1.2,0.4-2.9,0.2-3.5,1.2c-0.6,1.1,0.8,2.3,1,3.6c0.3,1.7,1.2,2,2.8,1.4c3.1-1,6.3-1.9,9.4-2.8
				c-0.5,2.2-2,3.7-3.2,5.5c-1.9,2.7-4.4,4.9-6.5,7.4c-2.6,1.4-5.6,1.8-8.3,3c-0.1,0-0.2,0-0.4,0c-1.3-3.9-2.6-7.8-3.9-11.7
				c-2.3-6.9-4.4-13.9-6.9-20.8c-2-5.4-3.7-10.8-5.4-16.2c-0.8-2.5-1.4-5-1.6-7.5c-0.1-0.9,0.2-1.4,1.1-1.7c2.8-0.9,5.6-1.9,8.4-3
				c3.8-1.5,7.7-2.9,11.3-4.9C26.8,101.3,26.7,100.7,26,99.6z"/>
			<path class="st22" d="M122.4,153.8c-0.6,1.2-0.4,2.5-0.9,3.7c-0.2,0.6-0.4,1-1.1,1.3c-9.5,3.3-19,6.6-28.4,9.9
				c-0.3,0.1-0.5,0.1-0.8,0.1c-0.2-1.1,1.4-1.4,1.1-2.6c-1.9,0.4-3.6,1.2-5.3,1.8c-10.3,3.4-20.6,6.9-30.9,10.3c-6,2-12,4-18.1,5.4
				c-3.5,0.8-7.1,0.7-9.7-2.6c-1.1-1.5-1.7-3.2-2.4-4.8c-0.9-2-1.2-4.2-2.8-5.9c0-0.1,0-0.2,0-0.3c0.4-0.1,0.8-0.1,1.1-0.2
				c12.3-3.9,24.5-7.9,36.8-11.8c18-5.8,35.9-11.7,53.9-17.5c0.6,0.5,0,0.8-0.2,1.1c-1.1,1.7-2.3,3.4-3.5,5
				c-4.6,6.1-9.8,11.6-15.2,16.9c-0.4,0.4-1.1,0.7-1,1.7c6.4-2.2,12.7-4.4,18.7-7.2C116.6,156.5,119.5,155.1,122.4,153.8z
				 M63.7,164.4c0,0-0.3,0.1-0.6,0.2c-4.8,1.6-9.6,3.2-14.4,4.8c-0.9,0.3-1.5,0.6-1,1.7c0.4,1.1,0.8,1.4,1.9,1
				c2.3-0.8,4.7-1.6,7-2.4c2.6-0.9,5.2-1.8,7.8-2.6c0.9-0.3,1.1-0.8,0.8-1.6C65.1,164.9,65,164.1,63.7,164.4z M70.7,164.9
				c1.4-0.4,2.6-0.8,3.9-1.2c3-1,6-2,9.1-3c1.1-0.4,1-1.1,0.7-2c-0.3-0.9-0.9-0.9-1.7-0.6c-4.1,1.4-8.2,2.7-12.3,4.1
				c-0.5,0.2-1.2,0.2-0.8,1C69.9,163.9,69.8,164.8,70.7,164.9z M43.2,173.4c0-1.3-0.7-1.9-2-1.5c-2.8,0.9-5.6,1.9-8.4,2.8
				c-1.1,0.4-0.9,1-0.7,1.8c0.3,0.8,0.7,1.1,1.6,0.8c2.8-1,5.6-1.9,8.4-2.8C42.7,174.4,43.3,174.2,43.2,173.4z"/>
			<path class="st3" d="M85.2,113.7c1.3-0.2,2.6-0.4,3.6-1.4c3.3,1.1,6.6,1.5,10,0.1c1.7-0.7,2.9-2.1,4.4-2.7
				c1.5-0.6,3.4,0.4,5.2,0.1c0.2,0,0.3-0.1,0.5-0.1c4.1-0.7,7.1-2.9,9.4-6.4c0.7,0.1,1.3-0.2,1.9-0.4c2.8-0.6,5.3-2,8.2-2.3
				c1.8,4.7,3,9.6,4.6,14.5c0.1,0.3,0.1,0.8,0,1.1c-1.7,6-3.4,11.9-5.2,17.9c-0.7-0.1-1.3,0.2-1.9,0.4c-3.4,1.1-6.8,2.3-10.3,3.5
				c-8.3,2.7-16.5,5.4-24.8,8c-1,0.3-2,0.7-3,0.7c0.3-1.3,0.7-2.5-0.3-3.7c-1-1.1-1.3-2.3-0.5-3.7c0.2-0.3,0.1-0.8,0.1-1.3
				c0.2-0.2,0.5-0.4,0.7-0.5c2.6-0.3,5.1-1.3,7.6-2.1c4.6-1.4,4.6-1.4,2.8-6c-0.3-0.7-0.6-0.9-1.3-0.7c-2,0.6-4.1,1.1-6.1,1.7
				c-0.1-0.9,0.6-1.1,1.1-1.5c1-0.6,1.8-1.5,2.4-2.4c0.6-0.9,0.7-1.7-0.1-2.5c-0.3-0.3-0.6-0.7-0.8-1c-1-2.3-3-3.1-5.1-3.8
				c-2.3-0.8-2.9-1.3-3.1-3.8C85.2,114.9,85.2,114.3,85.2,113.7z M124.2,123.7c0.1-1.9-1-2.8-2.7-2.3c-4.6,1.4-9.3,2.7-13.9,4.2
				c-1.3,0.4-3.3,0.2-3.6,1.4c-0.3,1.1,0.6,2.7,1,4.1c0.3,1,0.7,1.3,1.8,1c4.8-1.4,9.6-2.7,14.3-4.4
				C122.5,127.2,124.2,125,124.2,123.7z"/>
			<path class="st8" d="M88.7,88.7c-2.1-1.1-3.9,0.2-5.8,0.8c-4.8,1.4-9.6,2.9-14.4,4.4c-3.1,1-6.3,2-9.4,2.9
				c-0.4,0.1-0.8,0.6-1.2,0.1c-0.3-0.4,0-0.8,0.2-1.2c1.3-2.6,2.8-5.1,4.7-7.2c8.1-2.5,16.3-5,24.4-7.5c4.4-1.3,8.7-2.7,13.1-4
				c1.6-0.5,3.2-0.9,4.8-1.3c0.2,1.4-0.3,2.2-1.7,2.5c-3.3,0.7-6,3.3-9.5,3.6c-0.6,0.1-1.2,0.5-1.8,0.9c-1.2,0.8-1.2,2-0.7,3.2
				c0.4,1.2,1.3,0.8,2.2,0.5c2.7-0.9,5.3-1.7,8-2.5c4.7-1.5,9.5-2.2,14.2-3.7c1.9-0.6,3.7-1.4,5.7-1.3c0.4,1.3,0.8,2.6,1.2,3.9
				c-2.1,1.1-4.5,1.6-6.7,2.5c-0.5,0.2-1.3,0.1-1.3,1c-6.1-3.5-11.8-3.3-17.1,1.6c-0.3,0.3-0.5,0.3-0.9,0.2
				C94,87.4,91.3,87.9,88.7,88.7z"/>
			<path class="st23" d="M122.4,153.8c-2.9,1.4-5.8,2.8-8.8,4.1c-6,2.8-12.3,4.9-18.7,7.2c-0.1-1,0.6-1.3,1-1.7
				c5.4-5.3,10.6-10.8,15.2-16.9c1.2-1.6,2.3-3.3,3.5-5c0.2-0.3,0.8-0.6,0.2-1.1c4.2-1.4,8.4-2.8,12.6-4.1
				C125.8,142.1,124.1,147.9,122.4,153.8z"/>
			<path class="st24" d="M26,99.6c0.7,1.1,0.8,1.8-0.7,2.6c-3.6,2-7.5,3.5-11.3,4.9c-2.8,1-5.6,2-8.4,3c-0.9,0.3-1.2,0.8-1.1,1.7
				c0.2,2.6,0.8,5.1,1.6,7.5c1.7,5.4,3.5,10.8,5.4,16.2c2.5,6.9,4.6,13.8,6.9,20.8c1.3,3.9,2.6,7.8,3.9,11.7c-1,0.3-1.9,0.7-2.9,1
				c-1.8-3.4-2.7-7.2-4-10.8c-3.9-11.2-7.6-22.4-11.4-33.6c-1.2-3.5-2.4-7.1-2.5-10.9c0-4.4,2.2-7.4,6.4-8.7
				C13.9,103.2,20,101.4,26,99.6z"/>
			<path class="st7" d="M23,170.2c1.6,1.6,1.9,3.9,2.8,5.9c0.7,1.7,1.3,3.3,2.4,4.8c2.6,3.4,6.2,3.4,9.7,2.6
				c6.2-1.4,12.1-3.4,18.1-5.4c10.3-3.4,20.6-6.9,30.9-10.3c1.8-0.6,3.4-1.4,5.3-1.8c0.3,1.2-1.2,1.6-1.1,2.6
				c-5.2,1.9-10.4,3.8-15.7,5.6c-10.8,3.7-21.6,7.4-32.3,11c-3.3,1.1-6.7,2.2-10.3,2.2c-2.7,0.1-5-0.8-6.8-2.8
				c-3.4-4-4.8-8.8-6-13.7C21.1,170.7,22,170.5,23,170.2z"/>
			<path class="st3" d="M127.4,136.2c-4.2,1.4-8.4,2.8-12.6,4.1c-18,5.8-35.9,11.7-53.9,17.5c-12.3,4-24.5,7.9-36.8,11.8
				c-0.4,0.1-0.8,0.2-1.1,0.2c-0.1-0.6-0.2-1.3-0.4-1.9c2.7-1.2,5.7-1.5,8.3-3c0.5-0.1,1-0.1,1.4-0.3c7.6-2.4,15.2-4.8,22.7-7.2
				c5.8-1.9,11.6-3.6,17.4-5.6c5.1-1.7,10.3-3,15.3-5.1c1.1,0,2.1-0.4,3-0.7c8.3-2.7,16.5-5.3,24.8-8c3.4-1.1,6.8-2.3,10.3-3.5
				c0.6-0.2,1.2-0.5,1.9-0.4C127.9,134.9,127.6,135.6,127.4,136.2z"/>
			<path class="st3" d="M121.5,79c-2-0.1-3.9,0.7-5.7,1.3c-4.7,1.5-9.5,2.2-14.2,3.7c-2.7,0.8-5.4,1.6-8,2.5
				c-0.9,0.3-1.7,0.7-2.2-0.5c-0.4-1.2-0.4-2.4,0.7-3.2c0.5-0.4,1.2-0.8,1.8-0.9c3.5-0.3,6.1-2.9,9.5-3.6c1.4-0.3,1.9-1.2,1.7-2.5
				c2.3-0.7,4.5-1.6,6.9-2.2C116.2,72.5,119.4,74.4,121.5,79z"/>
			<path class="st8" d="M128.4,100.8c-2.9,0.3-5.4,1.7-8.2,2.3c-0.6,0.1-1.2,0.4-1.9,0.4c1-1.7,1.2-3.7,1.6-5.6
				c0.7,0.1,1.4-0.2,2.1-0.4c1.7-0.6,3.3-1.2,5.1-1.3C127.5,97.7,128,99.2,128.4,100.8z"/>
			<path class="st3" d="M114.6,86.3c0.1-0.8,0.8-0.8,1.3-1c2.2-0.8,4.6-1.4,6.7-2.5c0.5,1.5,1,2.9,1.5,4.4c-2.2,0.5-4.4,1.1-6.6,2
				C116.6,88.3,115.6,87.3,114.6,86.3z"/>
			<path class="st8" d="M117.6,89.3c2.1-0.9,4.3-1.5,6.6-2c0.6,1.4,1.1,2.8,1.4,4.3c-2,0.8-3.9,1.7-6.1,2
				C119.1,92.1,118.4,90.7,117.6,89.3z"/>
			<path class="st3" d="M119.5,93.6c2.1-0.4,4.1-1.2,6.1-2c0.5,1.5,1,3,1.5,4.6c-1.8,0.1-3.4,0.8-5.1,1.3c-0.7,0.2-1.3,0.5-2.1,0.4
				C119.7,96.4,119.6,95,119.5,93.6z"/>
			<path class="st23" d="M22.7,168c0.1,0.6,0.2,1.3,0.4,1.9c0,0.1,0,0.2,0,0.3c-1,0.2-1.9,0.5-2.9,0.7c-0.4-0.6-0.7-1.2-0.7-2
				c1-0.3,1.9-0.7,2.9-1C22.4,168,22.5,168,22.7,168z"/>
			<path class="st0" d="M185.7,160c-1,0-2,0-3,0c-2.6-0.1-2.6-0.1-3.4,2.5c-0.2,0.8-0.5,1.6-0.6,2.4c-0.2,1.3-1.1,1.6-2.2,1.3
				c-1.3-0.3-2.6-0.8-4-1.1c-1.2-0.3-1.6-0.9-1.3-2.2c0.3-1.3,0.6-2.6,1-3.8c0.2-0.8,0.2-1.2-0.7-1.5c-4.2-1.6-7.9-4-11.4-6.8
				c-0.1-0.1-0.2-0.1-0.3-0.2c-3.2-2.6-3.2-3.5-0.1-6.1c1.3-1.1,2.7-2.1,4-3.2c1.1-0.9,2.1-0.9,3.1,0.3c2.2,2.6,4.8,4.7,7.9,6.1
				c2.9,1.8,6.1,2.4,9.5,2.1c1.9-0.2,3.4-1.1,3.9-3.1c0.5-1.9-0.7-3.1-2-4c-2.8-2-6.1-3.3-9.2-4.8c-2.7-1.3-5.4-2.6-7.6-4.5
				c-5.1-4.5-5.8-12.1-1.5-17.5c3.5-4.4,8.1-6.2,13.6-6.1c1.5,0,3.3,0.7,4.3-0.2c0.9-0.8,1.1-2.6,1.5-3.9c0.4-1.6,1.2-1.9,2.7-1.4
				c1.3,0.4,2.5,0.7,3.8,1c1,0.2,1.3,0.8,1.1,1.8c-0.3,1.2-0.6,2.5-1,3.7c-0.4,1,0,1.3,0.9,1.7c4,1.6,7.6,3.7,10.8,6.5
				c1.5,1.3,1.4,1.7-0.1,2.9c-1.6,1.4-3.2,2.8-4.8,4.3c-1.1,1-2,1.1-3.1,0c-3.9-3.5-8.3-5.9-13.6-6.6c-1.2-0.2-2.3,0-3.4,0.4
				c-2.5,1-3,3.4-1.1,5.3c1.3,1.3,2.9,2.2,4.5,3c4.2,2.1,8.5,3.9,12.3,6.7c8.3,6.1,5,17.1,0,21.1C193.1,158.5,189.5,159.5,185.7,160
				z"/>
			<path class="st0" d="M209.5,182.5c-0.3,0.6-0.5,1.3-0.7,2c-0.3,1.8-1.4,2.7-3.2,2.3c-4-0.9-8-1.9-12-3c-1.3-0.3-1.9-1.4-1.5-2.7
				c0.4-1.3,1.5-1.7,2.8-1.4c2.8,0.6,5.6,1.3,8.4,1.9c0.7,0.3,1.1,0.3,1.4-0.6c0.7-2.7,1.6-5.4,2.4-8.1c0.4-1.4,1.7-2.2,3-1.8
				c1.3,0.4,1.9,1.5,1.5,3C210.9,177,210.2,179.7,209.5,182.5z"/>
			<path class="st7" d="M229.4,105.8c-0.6,2-1.3,4-1.9,6.1c-0.7,2.4-1.5,2.9-3.9,2.1c-0.8-0.8-0.9-1.6-0.6-2.7
				c0.6-2.2,1.1-4.4,1.7-6.5c0.4-1.3,0-1.9-1.3-2.2c-2.4-0.5-4.8-1.2-7.2-1.8c-1.4-0.4-2.2-1.4-1.9-2.6c0.2-1.1,1.5-1.9,2.9-1.5
				c3.8,1.1,7.6,1.9,11.4,2.8c1.5,0.3,2,1.3,1.7,2.8C230,103.4,229.4,104.6,229.4,105.8z"/>
			<path class="st7" d="M155.7,94.6c0.8-2.7,1.6-5.4,2.3-8.1c0.5-1.8,1.2-2.3,3.1-1.9c2.4,0.6,4.8,1.1,7.2,1.7
				c0.9,0.4,1.8,0.6,2.8,0.7c1.5,0.2,2.4,1.7,2.1,3c-0.3,1.1-1.4,1.5-2.9,1.4c-2.3-0.3-4.5-1.3-6.8-1.7c-1.1-0.2-1.7-0.1-2,1.2
				c-0.5,2.3-1.2,4.6-1.9,6.8c-0.4,1.3-1.5,2.1-2.7,1.7c-1.4-0.4-1.7-1.4-1.5-2.7C155.5,96,155.6,95.3,155.7,94.6z"/>
			<path class="st0" d="M140.8,154.7c1.8,0,2.9,1.3,2.5,2.9c-0.6,2.5-1.2,4.9-2,7.3c-0.3,1-0.1,1.4,0.9,1.6c2.4,0.5,4.7,1.2,7,1.9
				c1.7,0.5,2.5,1.6,2.1,2.8c-0.5,1.5-1.7,1.7-3.1,1.4c-3.6-0.9-7.2-1.8-10.7-2.7c-1.5-0.4-2.1-1.5-1.6-3.1c1-3.6,2-7.1,3-10.6
				C139.2,155.2,140,154.7,140.8,154.7z"/>
			<path class="st8" d="M87.8,146.8c-5,2.1-10.2,3.4-15.3,5.1c-5.8,1.9-11.6,3.7-17.4,5.6c-7.6,2.4-15.2,4.8-22.7,7.2
				c-0.5,0.1-1,0.2-1.4,0.3c2.1-2.5,4.6-4.7,6.5-7.4c1.2-1.7,2.7-3.3,3.2-5.5c1.7-0.6,3.4-1.1,5.1-1.7c3.2-1,3.2-1,2.1-4.1
				c-0.8-2.3-0.8-2.3-3-1.9c0.1-2,1.2-3.6,1.8-5.4c1.6-4.6,3.1-9.1,4.1-13.8c0.2-0.8,0.6-1.1,1.3-1.3c8.1-2.5,16.3-5,24.4-7.5
				c2.9-0.9,5.9-1.8,8.8-2.7c0,0.6,0,1.2,0,1.8c0.2,2.5,0.8,3,3.1,3.8c2.1,0.7,4.1,1.5,5.1,3.8c0.2,0.4,0.5,0.7,0.8,1
				c0.8,0.8,0.8,1.6,0.1,2.5c-0.7,1-1.4,1.8-2.4,2.4c-0.5,0.3-1.2,0.6-1.1,1.5c-0.9,0.6-2.1,0.5-3,1.2c-1.7,0.5-3.5,0.9-5.2,1.4
				c-4.5,1.3-4.5,1.4-2.9,5.8c0.3,0.8,0.6,1.1,1.5,0.8c2-0.6,4-1.1,6-1.7c0,0.4,0.1,1-0.1,1.3c-0.9,1.4-0.5,2.6,0.5,3.7
				C88.5,144.3,88.2,145.6,87.8,146.8z M55.8,147.4c0,0,0.3-0.1,0.7-0.2c5.2-1.5,10.4-2.9,15.5-4.5c2.9-0.9,2.5-0.5,1.6-3.2
				c-0.2-0.6-0.5-1.2-0.6-1.9c-0.2-1.1-0.7-1.4-1.8-1c-4.6,1.5-9.2,2.8-13.9,4.2c-1.4,0.4-3.5,0.3-4,1.5c-0.6,1.2,0.7,2.8,1.1,4.3
				c0,0.1,0,0.1,0,0.2C54.5,147.3,54.9,147.5,55.8,147.4z"/>
			<path class="st1" d="M119.5,93.6c0.1,1.4,0.3,2.8,0.4,4.2c-0.4,1.9-0.6,3.9-1.6,5.6c-2.2,3.4-5.3,5.6-9.4,6.4
				c-0.2,0-0.3,0.1-0.5,0.1c-1.8,0.3-3.7-0.7-5.2-0.1c-1.5,0.6-2.8,2.1-4.4,2.7c-3.3,1.3-6.7,0.9-10-0.1c-1.7-0.9-3.2-2-4.6-3.3
				c-1.1-1.4-2-3-2.7-4.7c-0.3-1.6-0.6-3.2-0.5-4.9c0.2-1.6,0.8-3.1,1.3-4.7c1.5-2.7,3.6-4.9,6.5-6.2c2.6-0.8,5.2-1.2,7.9-0.6
				c0.4,0.1,0.6,0,0.9-0.2c5.3-4.9,11-5.1,17.1-1.6c1,1,2,2,3,3C118.4,90.7,119.1,92.1,119.5,93.6z M115.3,102.1
				c2.1-3.4,1.8-6.8,0.2-10.2c-0.4-0.9-1-1.7-2-2c-0.2-1-1.1-1.3-1.8-1.7c-3.4-1.9-8.3-1.4-11.1,1.2c-3.3,2.9-4.5,7.4-3,11.2
				c1.7,4.1,4.8,6.3,9.2,6.4C110.4,107,113.5,105.6,115.3,102.1z M84.2,100.9c0.1,3.1,1.3,6.1,4.6,7.9c3.2,1.8,6.5,2.2,9.9,0.4
				c0.8-0.4,1.6-0.8,0.2-1.7c-4.9-3.6-6.5-9.6-4.2-15.3c0.4-1,0.3-1.3-0.8-1.3C88.5,90.7,84.4,94.8,84.2,100.9z"/>
			<path class="st1" d="M44.2,115.7c1,3.2,1.9,6.4,3.1,9.5c1.3,3.4-0.7,6.4-3.6,7.2c-5.5,1.6-10.9,3.5-16.3,5.3
				c-4.3,1.5-7,0.1-8.4-4.3c-1.3-4.1-2.6-8.1-4.1-12.1c-1.4-3.7,0.8-7,4.1-8c5-1.5,9.9-3.3,14.9-5c1.3-0.4,2.6-0.8,4-0.9
				c0.6,0.1,1.3,0.3,1.9,0.4c1.4,0.7,2.4,1.8,3.1,3.2C43.2,112.7,43.7,114.2,44.2,115.7z M45.4,127.2c-0.2-1.3-0.7-2.4-1.2-3.6
				c-0.3-0.8-0.7-0.8-1.4-0.6c-1.9,0.6-3.9,1.2-5.8,1.8c-1.1,0.4-1.8,0.3-2.1-1c-0.4-1.4-0.9-2.8-1.4-4.2c-0.3-0.8,0-1.2,0.7-1.5
				c1.4-0.4,2.7-0.9,4.1-1.3c3.1-1,3.1-1,2.3-4.2c-0.7-2.5-2-3.3-4.5-2.5c-3.1,1-6.3,2.1-9.4,3c-1.3,0.4-1.6,0.9-1.1,2.2
				c2,5.7,3.9,11.4,5.4,17.2c0.3,1.1,0.7,1.2,1.5,0.9c3.7-1.2,7.3-2.3,11-3.5C44.9,129.6,45.2,128.4,45.4,127.2z M24.9,136
				c1.3-0.4,2.8-0.9,4.3-1.3c0.5-0.2,0.4-0.5,0.3-0.9c-0.9-2.5-1.7-5.1-2.6-7.6c-0.2-0.7-0.6-0.6-1.1-0.5c-1.8,0.6-3.6,1.1-5.4,1.6
				c-0.7,0.2-0.9,0.5-0.7,1.2c0.6,1.9,1.2,3.8,1.9,5.6C22.2,135.3,23.3,135.9,24.9,136z M16.9,119.4c0.6,1.9,1.2,4,2,6
				c0.2,0.6,0.7,0.3,1.1,0.2c1.7-0.5,3.3-1.1,5-1.5c0.9-0.2,1.1-0.6,0.8-1.5c-0.5-1.4-0.8-2.8-1.3-4.2c-0.4-1.2-0.5-2.9-1.3-3.4
				c-0.9-0.6-2.4,0.5-3.7,0.8C17.8,116.2,16.8,117.4,16.9,119.4z M43.2,120.7c-0.2-0.6-0.4-1.1-0.5-1.7c-0.2-1.2-0.7-1.6-1.9-1.1
				c-1.4,0.6-2.9,0.9-4.4,1.3c-0.8,0.2-1,0.6-0.6,1.3c0.2,0.5,0.4,1.1,0.6,1.7c0.2,0.7,0.6,0.8,1.2,0.6c1.6-0.6,3.2-1,4.9-1.5
				C42.8,121.2,43.2,121.2,43.2,120.7z"/>
			<path class="st8" d="M81.5,104.4c0.7,1.6,1.6,3.2,2.7,4.7c-2.7,0.4-5.3,1.4-7.9,2.1c-7.3,2.2-14.6,4.4-21.9,6.6
				c-1.5,0.4-1.8,0.1-1.5-1.4c0.2-1,0.4-2,0.5-3.1c0.1-0.1,0.2-0.2,0.3-0.3c0.5-0.1,1-0.1,1.5-0.2C63.9,109.9,72.9,107.7,81.5,104.4
				z"/>
			<path class="st24" d="M44.8,144.5c2.3-0.4,2.3-0.4,3,1.9c1,3.1,1,3.1-2.1,4.1c-1.7,0.5-3.4,1.1-5.1,1.7c-3.2,0.9-6.3,1.8-9.4,2.8
				c-1.6,0.5-2.5,0.3-2.8-1.4c-0.2-1.3-1.6-2.5-1-3.6c0.5-1,2.3-0.8,3.5-1.2C35.5,147.3,40.2,145.9,44.8,144.5z"/>
			<path class="st8" d="M82.3,94.9c-0.5,1.5-1,3.1-1.3,4.7c-5.3,1.6-10.5,3.3-15.8,4.8c-3,0.8-5.9,2-8.9,2.8c-1.1,0.3-1.2-0.2-1.1-1
				c0.1-1,0.7-2,0.6-3c0.1-0.1,0.2-0.2,0.3-0.3c5.3-1.1,10.3-3.3,15.5-4.7C75.2,97.1,78.6,95.6,82.3,94.9z"/>
			<path class="st24" d="M56,102.8c-0.1,0.1-0.2,0.2-0.3,0.3c-0.8,0-1.5,0.3-2.2,0.5c-3.9,1.2-7.7,2.4-11.6,3.7
				c-0.7,0.2-1.6-0.2-2.1,0.6c-0.6-0.1-1.3-0.3-1.9-0.4c0.1-4.9-0.9-3.8,4-5.5c4.5-1.5,9-2.8,13.5-4.2c0.5-0.1,1-0.5,1.4-0.1
				c0.5,0.5,0.1,1-0.1,1.5C56.4,100.4,56,101.5,56,102.8z"/>
			<path class="st24" d="M53.8,113.1c-0.1,0.1-0.2,0.2-0.3,0.3c-2.3,0.7-4.6,1.3-6.9,2c-0.8,0.2-1.5,0.7-2.3,0.3
				c-0.6-1.5-1.1-3-1.4-4.5c3.5-1.1,7-2.1,10.5-3.2c0.9-0.3,1.1,0.2,1,0.9C54.2,110.3,54,111.7,53.8,113.1z"/>
			<path class="st23" d="M63.7,164.4c1.3-0.3,1.4,0.5,1.6,1.1c0.3,0.8,0.1,1.3-0.8,1.6c-2.6,0.8-5.2,1.7-7.8,2.6
				c-2.3,0.8-4.7,1.5-7,2.4c-1.1,0.4-1.6,0.1-1.9-1c-0.4-1.2,0.2-1.4,1-1.7c4.8-1.6,9.6-3.2,14.4-4.8
				C63.4,164.5,63.7,164.4,63.7,164.4z"/>
			<path class="st23" d="M70.7,164.9c-0.9-0.1-0.9-1-1.2-1.7c-0.4-0.9,0.3-0.9,0.8-1c4.1-1.4,8.2-2.7,12.3-4.1
				c0.8-0.3,1.4-0.3,1.7,0.6c0.3,0.9,0.4,1.6-0.7,2c-3,1-6,2-9.1,3C73.3,164.1,72.1,164.5,70.7,164.9z"/>
			<path class="st23" d="M43.2,173.4c0.1,0.8-0.4,0.9-1,1.1c-2.8,0.9-5.6,1.8-8.4,2.8c-0.9,0.3-1.4,0-1.6-0.8
				c-0.3-0.8-0.4-1.5,0.7-1.8c2.8-0.9,5.6-1.9,8.4-2.8C42.5,171.5,43.1,172.1,43.2,173.4z"/>
			<path class="st8" d="M124.2,123.7c0,1.4-1.7,3.6-3.1,4c-4.7,1.7-9.5,3-14.3,4.4c-1.1,0.3-1.5,0-1.8-1c-0.4-1.4-1.4-2.9-1-4.1
				c0.4-1.2,2.4-1,3.6-1.4c4.6-1.5,9.2-2.8,13.9-4.2C123.2,120.9,124.3,121.8,124.2,123.7z"/>
			<path class="st8" d="M87.8,131.8c0.9-0.8,2.1-0.6,3-1.2c2.1-0.6,4.1-1.1,6.1-1.7c0.7-0.2,1-0.1,1.3,0.7c1.8,4.6,1.8,4.6-2.8,6
				c-2.5,0.8-4.9,1.8-7.6,2.1C87.9,135.7,88.1,133.7,87.8,131.8z"/>
			<path class="st24" d="M87.8,131.8c0.3,1.9,0,3.8,0.1,5.8c-0.2,0.2-0.5,0.4-0.7,0.5c-2,0.6-4,1.1-6,1.7c-0.9,0.3-1.2,0-1.5-0.8
				c-1.6-4.5-1.6-4.5,2.9-5.8C84.4,132.7,86.1,132.3,87.8,131.8z"/>
			<path class="st24" d="M55.8,147.4c-1,0.1-1.3-0.1-1.4-0.6c0-0.1,0-0.1,0-0.2c-0.3-1.5-1.7-3.1-1.1-4.3c0.6-1.1,2.6-1,4-1.5
				c4.6-1.4,9.3-2.8,13.9-4.2c1.1-0.4,1.6-0.1,1.8,1c0.1,0.6,0.4,1.3,0.6,1.9c0.9,2.7,1.3,2.3-1.6,3.2c-5.1,1.6-10.3,3-15.5,4.5
				C56.1,147.3,55.8,147.4,55.8,147.4z"/>
			<path class="st25" d="M115.3,102.1c-1.8,3.5-4.9,4.8-8.6,4.8c-4.4-0.1-7.5-2.3-9.2-6.4c-1.6-3.8-0.3-8.3,3-11.2
				c2.9-2.5,7.7-3.1,11.1-1.2c0.7,0.4,1.7,0.7,1.8,1.7c-2.1,0.4-2.6,1.4-1.7,3.2c0.5,0.9,0.9,1.9,1.6,2.7c0.5,0.6,1.2,1.4,0.9,2.2
				C113.7,99.7,114.4,100.9,115.3,102.1z"/>
			<path class="st8" d="M53.8,113.1c0.2-1.4,0.5-2.8,0.6-4.2c0.1-0.7-0.1-1.2-1-0.9c-3.5,1.1-7,2.1-10.5,3.2
				c-0.7-1.4-1.7-2.5-3.1-3.2c0.5-0.8,1.4-0.4,2.1-0.6c3.8-1.3,7.7-2.5,11.6-3.7c0.7-0.2,1.4-0.6,2.2-0.5c0.1,1.1-0.5,2-0.6,3
				c-0.1,0.9,0,1.3,1.1,1c3-0.8,5.9-2,8.9-2.8c5.3-1.5,10.6-3.2,15.8-4.8c-0.1,1.7,0.2,3.3,0.5,4.9c-8.6,3.2-17.6,5.5-26.3,8.4
				C54.8,113,54.2,113,53.8,113.1z"/>
			<path class="st25" d="M84.2,100.9c0.2-6.1,4.3-10.1,9.7-10c1.1,0,1.3,0.3,0.8,1.3c-2.3,5.7-0.7,11.7,4.2,15.3
				c1.3,1,0.6,1.3-0.2,1.7c-3.4,1.8-6.7,1.3-9.9-0.4C85.6,106.9,84.3,103.9,84.2,100.9z"/>
			<path class="st21" d="M115.3,102.1c-0.9-1.2-1.6-2.5-1-4.2c0.3-0.8-0.4-1.6-0.9-2.2c-0.7-0.8-1.1-1.7-1.6-2.7
				c-0.9-1.9-0.4-2.8,1.7-3.2c1,0.4,1.6,1.1,2,2C117.1,95.3,117.3,98.8,115.3,102.1z"/>
			<path class="st21" d="M45.4,127.2c-0.2,1.2-0.4,2.4-1.8,2.8c-3.7,1.2-7.3,2.3-11,3.5c-0.9,0.3-1.3,0.2-1.5-0.9
				c-1.5-5.8-3.4-11.5-5.4-17.2c-0.5-1.3-0.2-1.8,1.1-2.2c3.2-0.9,6.3-2,9.4-3c2.5-0.8,3.9,0,4.5,2.5c0.8,3.2,0.8,3.2-2.3,4.2
				c-1.4,0.4-2.7,0.9-4.1,1.3c-0.8,0.2-1.1,0.6-0.7,1.5c0.5,1.4,1,2.8,1.4,4.2c0.3,1.3,1,1.3,2.1,1c1.9-0.7,3.9-1.2,5.8-1.8
				c0.7-0.2,1.1-0.2,1.4,0.6C44.6,124.8,45.1,126,45.4,127.2z"/>
			<path class="st25" d="M24.9,136c-1.6-0.1-2.7-0.6-3.2-2c-0.7-1.9-1.2-3.8-1.9-5.6c-0.2-0.7,0-1,0.7-1.2c1.8-0.5,3.6-1,5.4-1.6
				c0.5-0.2,0.9-0.2,1.1,0.5c0.8,2.6,1.7,5.1,2.6,7.6c0.1,0.4,0.2,0.8-0.3,0.9C27.7,135.1,26.2,135.6,24.9,136z"/>
			<path class="st25" d="M16.9,119.4c0-2,0.9-3.2,2.7-3.7c1.2-0.4,2.7-1.4,3.7-0.8c0.8,0.5,1,2.2,1.3,3.4c0.5,1.4,0.8,2.8,1.3,4.2
				c0.3,0.9,0.1,1.3-0.8,1.5c-1.7,0.4-3.4,1-5,1.5c-0.4,0.1-0.9,0.4-1.1-0.2C18.1,123.3,17.5,121.2,16.9,119.4z"/>
			<path class="st21" d="M43.2,120.7c0.1,0.4-0.3,0.5-0.7,0.6c-1.6,0.5-3.3,1-4.9,1.5c-0.7,0.2-1,0.1-1.2-0.6
				c-0.2-0.6-0.4-1.2-0.6-1.7c-0.3-0.7-0.1-1.1,0.6-1.3c1.5-0.4,3-0.8,4.4-1.3c1.2-0.5,1.7-0.1,1.9,1.1
				C42.8,119.6,43,120.1,43.2,120.7z"/>
		</g>
	</g>
	<circle class="st26" cx="161.5" cy="210.1" r="10.6"/>
</g>
<path class="st0" d="M135.3,156.5l-5.7,20.5c-1,3.5,1.1,7.1,4.6,8l65.4,17.7c3.4,0.9,6.9-1,7.9-4.3l4.9-15.8"/>
<path class="st26" d="M181.6,169.2c-1,0-2,0-3,0c-2.6-0.1-2.6-0.1-3.4,2.5c-0.2,0.8-0.5,1.6-0.6,2.4c-0.2,1.3-1.1,1.6-2.2,1.3
	c-1.3-0.3-2.6-0.8-4-1.1c-1.2-0.3-1.6-0.9-1.3-2.2c0.3-1.3,0.6-2.6,1-3.8c0.2-0.8,0.2-1.2-0.7-1.5c-4.2-1.6-7.9-4-11.4-6.8
	c-0.1-0.1-0.2-0.1-0.3-0.2c-3.2-2.6-3.2-3.5-0.1-6.1c1.3-1.1,2.7-2.1,4-3.2c1.1-0.9,2.1-0.9,3.1,0.3c2.2,2.6,4.8,4.7,7.9,6.1
	c2.9,1.8,6.1,2.4,9.5,2.1c1.9-0.2,3.4-1.1,3.9-3.1c0.5-1.9-0.7-3.1-2-4c-2.8-2-6.1-3.3-9.2-4.8c-2.7-1.3-5.4-2.6-7.6-4.5
	c-5.1-4.5-5.8-12.1-1.5-17.5c3.5-4.4,8.1-6.2,13.6-6.1c1.5,0,3.3,0.7,4.3-0.2c0.9-0.8,1.1-2.6,1.5-3.9c0.4-1.6,1.2-1.9,2.7-1.4
	c1.3,0.4,2.5,0.7,3.8,1c1,0.2,1.3,0.8,1.1,1.8c-0.3,1.2-0.6,2.5-1,3.7c-0.4,1,0,1.3,0.9,1.7c4,1.6,7.6,3.7,10.8,6.5
	c1.5,1.3,1.4,1.7-0.1,2.9c-1.6,1.4-3.2,2.8-4.8,4.3c-1.1,1-2,1.1-3.1,0c-3.9-3.5-8.3-5.9-13.6-6.6c-1.2-0.2-2.3,0-3.4,0.4
	c-2.5,1-3,3.4-1.1,5.3c1.3,1.3,2.9,2.2,4.5,3c4.2,2.1,8.5,3.9,12.3,6.7c8.3,6.1,5,17.1,0,21.1C189,167.7,185.4,168.7,181.6,169.2z"
	/>
<path class="st7" d="M134.3,172.6c0.6-2,1.3-4,1.9-6.1c0.7-2.4,1.5-2.9,3.9-2.1c0.8,0.8,0.9,1.6,0.6,2.7c-0.6,2.2-1.1,4.4-1.7,6.5
	c-0.4,1.3,0,1.9,1.3,2.2c2.4,0.5,4.8,1.2,7.2,1.8c1.4,0.4,2.2,1.4,1.9,2.6c-0.2,1.1-1.5,1.9-2.9,1.5c-3.8-1.1-7.6-1.9-11.4-2.8
	c-1.5-0.3-2-1.3-1.7-2.8C133.8,174.9,134.3,173.8,134.3,172.6z"/>
<path class="st7" d="M207,188.1c-0.8,2.7-1.6,5.4-2.3,8.1c-0.5,1.8-1.2,2.3-3.1,1.9c-2.4-0.6-4.8-1.1-7.2-1.7
	c-0.9-0.4-1.8-0.6-2.8-0.7c-1.5-0.2-2.4-1.7-2.1-3c0.3-1.1,1.4-1.5,2.9-1.4c2.3,0.3,4.5,1.3,6.8,1.7c1.1,0.2,1.7,0.1,2-1.2
	c0.5-2.3,1.2-4.6,1.9-6.8c0.4-1.3,1.5-2.1,2.7-1.7c1.4,0.4,1.7,1.4,1.5,2.7C207.2,186.7,207.1,187.4,207,188.1z"/>
</svg>
